<svg xmlns="http://www.w3.org/2000/svg" xmlns:xlink="http://www.w3.org/1999/xlink" width="500" zoomAndPan="magnify" viewBox="0 0 375 374.999991" height="500" preserveAspectRatio="xMidYMid meet" version="1.0"><defs><clipPath id="7f71ab1d46"><path d="M 145 256 L 351 256 L 351 374.203125 L 145 374.203125 Z M 145 256 " clip-rule="nonzero"/></clipPath><clipPath id="d1e2fac3af"><path d="M 208 289 L 351 289 L 351 374.203125 L 208 374.203125 Z M 208 289 " clip-rule="nonzero"/></clipPath><clipPath id="53fa9c7cda"><path d="M 145 339 L 209 339 L 209 374.203125 L 145 374.203125 Z M 145 339 " clip-rule="nonzero"/></clipPath></defs><g clip-path="url(#7f71ab1d46)"><path fill="#bac1ce" d="M 293.957031 257.265625 L 350.777344 289.808594 L 350.777344 291.589844 L 208.535156 374.214844 L 164.667969 349.128906 L 155.953125 354.1875 C 154.875 354.800781 153.382812 354.742188 151.683594 353.75 C 148.351562 351.847656 145.660156 347.199219 145.660156 343.371094 C 145.691406 341.410156 146.390625 340.066406 147.53125 339.453125 L 289.6875 256.859375 C 290.769531 256.214844 292.261719 256.300781 293.957031 257.265625 Z M 293.957031 257.265625 " fill-opacity="1" fill-rule="nonzero"/></g><path fill="#bac1ce" d="M 374.4375 195.578125 C 374.4375 196.132812 374.054688 196.71875 373.296875 197.15625 L 304.925781 236.625 C 303.402344 237.503906 300.976562 237.503906 299.484375 236.625 L 257.050781 212.679688 C 256.523438 212.417969 256.203125 211.863281 256.203125 211.277344 L 256.171875 209.582031 L 330.015625 166.953125 L 373.296875 192.097656 C 374.027344 192.535156 374.40625 193.09375 374.40625 193.675781 Z M 374.4375 195.578125 " fill-opacity="1" fill-rule="nonzero"/><path fill="#bac1ce" d="M 150.105469 306.882812 L 124.105469 321.882812 C 123.113281 322.4375 122.207031 322.4375 121.59375 321.996094 L 115.1875 318.285156 C 114.542969 317.90625 114.164062 317.203125 114.164062 316.179688 L 113.960938 235.925781 C 113.960938 233.820312 115.480469 231.21875 117.265625 230.164062 L 141.566406 216.132812 C 141.507812 215.925781 141.449219 215.722656 141.449219 215.488281 L 141.449219 147.425781 L 117.90625 161.019531 L 117.996094 194.261719 C 117.996094 194.964844 117.617188 195.605469 117.03125 195.957031 L 4.003906 261.183594 L 4.089844 292.027344 L 29.414062 306.851562 L 46.671875 296.910156 C 48.277344 295.976562 50.910156 295.976562 52.519531 296.910156 L 119.078125 335.5625 C 119.898438 336.058594 120.277344 336.671875 120.277344 337.316406 L 120.304688 342.199219 C 120.304688 342.84375 119.867188 343.457031 119.046875 343.925781 L 80.855469 365.96875 C 79.246094 366.933594 76.617188 366.933594 75.007812 365.96875 L 8.449219 327.316406 C 7.628906 326.851562 7.246094 326.234375 7.246094 325.621094 L 7.246094 320.679688 C 7.246094 320.855469 7.335938 321.003906 7.394531 321.148438 C 7.128906 320.386719 7.421875 319.570312 8.445312 318.957031 L 25.554688 309.101562 L 1.164062 294.835938 C 0.582031 294.484375 0.199219 293.84375 0.199219 293.140625 L 0.113281 260.074219 C 0.113281 259.371094 0.492188 258.730469 1.078125 258.40625 L 114.105469 193.152344 L 114.019531 163.242188 L 66.378906 190.753906 C 56.640625 196.367188 47.898438 196.339844 42.050781 191.777344 C 42.605469 192.214844 43.1875 192.625 43.804688 192.976562 L 31.40625 185.785156 C 25.703125 182.480469 22.164062 175.40625 22.132812 165.347656 C 22.074219 145.289062 36.230469 120.703125 53.777344 110.585938 C 54.476562 110.179688 55.121094 109.796875 55.824219 109.476562 C 55.238281 107.226562 54.917969 104.742188 54.917969 101.964844 C 54.859375 83.574219 67.839844 61.0625 83.722656 51.910156 C 86.851562 50.097656 89.890625 48.957031 92.640625 48.3125 L 92.671875 48.3125 C 96.882812 31.589844 108.609375 14.429688 122.5 6.445312 C 131.332031 1.328125 139.371094 0.863281 145.132812 4.222656 L 156.570312 10.859375 C 158.847656 8.902344 161.1875 7.175781 163.617188 5.773438 C 171.6875 1.125 178.96875 0.714844 184.203125 3.757812 L 196.605469 10.976562 C 192.976562 8.84375 188.386719 8.40625 183.210938 9.894531 C 194.261719 6.765625 202.714844 12.410156 204.617188 24.367188 C 209.179688 24.953125 213.332031 26.296875 215.933594 27.816406 L 228.097656 34.921875 C 233.917969 38.167969 237.546875 45.242188 237.574219 55.328125 C 237.660156 75.589844 223.449219 100.03125 205.960938 110.175781 L 174 128.625 L 173.878906 166.222656 L 282.289062 103.394531 C 282.875 103.042969 283.605469 103.042969 284.21875 103.394531 C 284.832031 103.746094 285.183594 104.386719 285.183594 105.0625 L 285.242188 136.375 L 324.429688 113.773438 C 325.191406 113.335938 325.890625 113.277344 326.386719 113.570312 L 329.050781 115.117188 C 329.050781 115.117188 329.050781 115.117188 329.078125 115.148438 C 329.546875 115.410156 329.867188 116.023438 329.867188 116.871094 L 330.015625 166.925781 L 256.171875 209.550781 L 254.273438 208.472656 C 253.773438 208.179688 253.484375 207.621094 253.484375 207.066406 L 253.335938 157.949219 C 253.335938 156.195312 254.535156 154.089844 256.054688 153.214844 L 281.351562 138.625 L 281.324219 108.453125 L 172.914062 171.28125 C 172.621094 171.457031 172.273438 171.546875 171.949219 171.546875 C 171.597656 171.546875 171.277344 171.457031 170.957031 171.28125 C 170.371094 170.960938 169.992188 170.289062 169.992188 169.613281 L 170.109375 130.875 L 145.339844 145.171875 L 145.339844 213.96875 L 225.292969 167.859375 C 226.140625 167.304688 227.015625 167.304688 227.601562 167.65625 L 233.945312 171.339844 C 234.648438 171.632812 235.117188 172.394531 235.117188 173.5625 L 235.351562 253.785156 C 235.351562 255.921875 233.886719 258.496094 232.046875 259.574219 L 205.550781 274.867188 L 216.808594 281.386719 L 216.898438 286.09375 L 165.457031 315.796875 Z M 150.105469 306.882812 " fill-opacity="1" fill-rule="nonzero"/><path fill="#416e84" d="M 143.386719 217.441406 C 142.316406 217.441406 141.445312 216.574219 141.445312 215.5 L 141.445312 136.628906 C 141.445312 135.554688 142.316406 134.6875 143.386719 134.6875 C 144.460938 134.6875 145.328125 135.554688 145.328125 136.628906 L 145.328125 215.5 C 145.328125 216.574219 144.460938 217.441406 143.386719 217.441406 Z M 143.386719 217.441406 " fill-opacity="1" fill-rule="nonzero"/><path fill="#416e84" d="M 171.941406 171.550781 C 171.605469 171.550781 171.269531 171.464844 170.96875 171.289062 C 170.367188 170.945312 169.996094 170.300781 170 169.609375 L 170.1875 102.695312 C 170.191406 101.625 171.058594 100.757812 172.128906 100.757812 L 172.132812 100.757812 C 173.207031 100.761719 174.074219 101.636719 174.070312 102.703125 L 173.894531 166.238281 L 282.277344 103.394531 C 282.882812 103.050781 283.617188 103.046875 284.21875 103.390625 C 284.824219 103.734375 285.195312 104.375 285.195312 105.070312 L 285.242188 138.886719 C 285.242188 139.960938 284.378906 140.832031 283.304688 140.832031 L 283.300781 140.832031 C 282.234375 140.832031 281.359375 139.964844 281.359375 138.894531 L 281.316406 108.4375 L 172.914062 171.289062 C 172.613281 171.464844 172.277344 171.550781 171.941406 171.550781 Z M 171.941406 171.550781 " fill-opacity="1" fill-rule="nonzero"/><path fill="#474b59" d="M 165.449219 315.789062 L 141.160156 301.675781 L 141.070312 296.976562 L 165.359375 311.089844 Z M 165.449219 315.789062 " fill-opacity="1" fill-rule="nonzero"/><path fill="#525566" d="M 165.359375 311.089844 L 141.070312 296.976562 L 192.523438 267.277344 L 216.816406 281.390625 Z M 165.359375 311.089844 " fill-opacity="1" fill-rule="nonzero"/><path fill="#3f434f" d="M 216.816406 281.390625 L 216.902344 286.089844 L 165.449219 315.789062 L 165.359375 311.089844 Z M 216.816406 281.390625 " fill-opacity="1" fill-rule="nonzero"/><path fill="#bac1ce" d="M 234.148438 171.46875 C 233.570312 171.109375 232.707031 171.109375 231.773438 171.683594 L 123.824219 233.960938 C 122.023438 235.039062 120.511719 237.632812 120.511719 239.71875 L 120.726562 319.925781 C 120.726562 321.003906 121.085938 321.722656 121.734375 322.082031 L 115.179688 318.273438 C 114.535156 317.914062 114.171875 317.195312 114.171875 316.1875 L 113.957031 235.910156 C 113.957031 233.824219 115.46875 231.230469 117.269531 230.152344 L 225.289062 167.875 C 226.152344 167.300781 227.019531 167.300781 227.59375 167.660156 Z M 234.148438 171.46875 " fill-opacity="1" fill-rule="nonzero"/><path fill="#5b5e71" d="M 231.804688 171.671875 C 233.644531 170.609375 235.121094 171.449219 235.125 173.5625 L 235.355469 253.796875 C 235.359375 255.910156 233.894531 258.5 232.054688 259.5625 L 124.097656 321.875 C 122.261719 322.9375 120.738281 322.070312 120.730469 319.957031 L 120.503906 239.726562 C 120.496094 237.613281 122.011719 235.046875 123.847656 233.984375 Z M 231.804688 171.671875 " fill-opacity="1" fill-rule="nonzero"/><path fill="#748bfd" d="M 125.613281 238.824219 L 125.828125 314.988281 L 230.246094 254.71875 L 230.027344 178.554688 Z M 125.613281 238.824219 " fill-opacity="1" fill-rule="nonzero"/><path fill="#e4e8f4" d="M 140.066406 253.414062 L 140.070312 254.871094 L 131.3125 259.925781 L 131.308594 258.46875 Z M 140.066406 253.414062 " fill-opacity="1" fill-rule="nonzero"/><path fill="#e4e8f4" d="M 146.976562 290.066406 L 146.980469 291.5 L 131.429688 300.476562 L 131.425781 299.042969 Z M 146.976562 290.066406 " fill-opacity="1" fill-rule="nonzero"/><path fill="#e4e8f4" d="M 193.894531 268.800781 L 193.898438 270.234375 L 184.523438 275.644531 L 184.519531 274.210938 Z M 193.894531 268.800781 " fill-opacity="1" fill-rule="nonzero"/><path fill="#e4e8f4" d="M 182.167969 275.570312 L 182.171875 277.003906 L 165.332031 286.722656 L 165.328125 285.289062 Z M 182.167969 275.570312 " fill-opacity="1" fill-rule="nonzero"/><path fill="#e4e8f4" d="M 193.875 262.992188 L 193.878906 264.429688 L 174.503906 275.613281 L 174.5 274.179688 Z M 193.875 262.992188 " fill-opacity="1" fill-rule="nonzero"/><path fill="#e4e8f4" d="M 174.996094 262.285156 L 175 263.71875 L 151.101562 277.511719 L 151.097656 276.078125 Z M 174.996094 262.285156 " fill-opacity="1" fill-rule="nonzero"/><path fill="#e4e8f4" d="M 186.519531 220.808594 L 186.523438 222.242188 L 175.269531 228.738281 L 175.265625 227.304688 Z M 186.519531 220.808594 " fill-opacity="1" fill-rule="nonzero"/><path fill="#e4e8f4" d="M 193.84375 251.40625 L 193.847656 252.839844 L 178.808594 261.519531 L 178.804688 260.085938 Z M 193.84375 251.40625 " fill-opacity="1" fill-rule="nonzero"/><path fill="#e4e8f4" d="M 182.972656 263.496094 L 182.976562 264.929688 L 166.914062 274.199219 L 166.910156 272.765625 Z M 182.972656 263.496094 " fill-opacity="1" fill-rule="nonzero"/><path fill="#e4e8f4" d="M 193.859375 257.210938 L 193.863281 258.644531 L 184.429688 264.089844 L 184.425781 262.65625 Z M 193.859375 257.210938 " fill-opacity="1" fill-rule="nonzero"/><path fill="#e4e8f4" d="M 187.03125 249.542969 L 187.039062 250.976562 L 164.546875 263.957031 L 164.542969 262.523438 Z M 187.03125 249.542969 " fill-opacity="1" fill-rule="nonzero"/><path fill="#e4e8f4" d="M 193.828125 245.621094 L 193.832031 247.054688 L 188.898438 249.902344 L 188.894531 248.46875 Z M 193.828125 245.621094 " fill-opacity="1" fill-rule="nonzero"/><path fill="#e4e8f4" d="M 193.792969 234.007812 L 193.796875 235.46875 L 184.570312 240.792969 L 184.566406 239.335938 Z M 193.792969 234.007812 " fill-opacity="1" fill-rule="nonzero"/><path fill="#e4e8f4" d="M 193.8125 239.816406 L 193.816406 241.25 L 178.324219 250.191406 L 178.320312 248.757812 Z M 193.8125 239.816406 " fill-opacity="1" fill-rule="nonzero"/><path fill="#e4e8f4" d="M 193.777344 228.226562 L 193.78125 229.660156 L 174.691406 240.679688 L 174.6875 239.246094 Z M 193.777344 228.226562 " fill-opacity="1" fill-rule="nonzero"/><path fill="#e4e8f4" d="M 193.761719 222.421875 L 193.765625 223.878906 L 165.855469 239.988281 L 165.851562 238.53125 Z M 193.761719 222.421875 " fill-opacity="1" fill-rule="nonzero"/><path fill="#e4e8f4" d="M 181.824219 240.917969 L 181.828125 242.375 L 163.636719 252.875 L 163.632812 251.417969 Z M 181.824219 240.917969 " fill-opacity="1" fill-rule="nonzero"/><path fill="#e4e8f4" d="M 175.945312 250.128906 L 175.949219 251.5625 L 155.9375 263.113281 L 155.933594 261.679688 Z M 175.945312 250.128906 " fill-opacity="1" fill-rule="nonzero"/><path fill="#e4e8f4" d="M 161.8125 252.46875 L 161.816406 253.925781 L 146.242188 262.917969 L 146.238281 261.457031 Z M 161.8125 252.46875 " fill-opacity="1" fill-rule="nonzero"/><path fill="#e4e8f4" d="M 161.902344 240.8125 L 161.90625 242.269531 L 143.039062 253.15625 L 143.035156 251.699219 Z M 161.902344 240.8125 " fill-opacity="1" fill-rule="nonzero"/><path fill="#e4e8f4" d="M 139.429688 288.628906 L 139.433594 290.0625 L 131.410156 294.691406 L 131.40625 293.257812 Z M 139.429688 288.628906 " fill-opacity="1" fill-rule="nonzero"/><path fill="#e4e8f4" d="M 163.484375 286.351562 L 163.488281 287.785156 L 142.882812 299.679688 L 142.878906 298.246094 Z M 163.484375 286.351562 " fill-opacity="1" fill-rule="nonzero"/><path fill="#e4e8f4" d="M 171.53125 275.890625 L 171.535156 277.324219 L 150.109375 289.691406 L 150.105469 288.257812 Z M 171.53125 275.890625 " fill-opacity="1" fill-rule="nonzero"/><path fill="#e4e8f4" d="M 165.191406 273.757812 L 165.195312 275.191406 L 141.601562 288.8125 L 141.597656 287.378906 Z M 165.191406 273.757812 " fill-opacity="1" fill-rule="nonzero"/><path fill="#e4e8f4" d="M 146.59375 278.675781 L 146.597656 280.109375 L 131.394531 288.886719 L 131.390625 287.453125 Z M 146.59375 278.675781 " fill-opacity="1" fill-rule="nonzero"/><path fill="#e4e8f4" d="M 139.4375 277.015625 L 139.441406 278.449219 L 131.378906 283.105469 L 131.375 281.667969 Z M 139.4375 277.015625 " fill-opacity="1" fill-rule="nonzero"/><path fill="#e4e8f4" d="M 151.597656 264.183594 L 151.601562 265.617188 L 131.363281 277.296875 L 131.359375 275.863281 Z M 151.597656 264.183594 " fill-opacity="1" fill-rule="nonzero"/><path fill="#e4e8f4" d="M 160.308594 264.96875 L 160.3125 266.402344 L 143.390625 276.171875 L 143.386719 274.738281 Z M 160.308594 264.96875 " fill-opacity="1" fill-rule="nonzero"/><path fill="#e4e8f4" d="M 144.050781 262.722656 L 144.054688 264.179688 L 131.347656 271.515625 L 131.34375 270.058594 Z M 144.050781 262.722656 " fill-opacity="1" fill-rule="nonzero"/><path fill="#e4e8f4" d="M 155.472656 250.335938 L 155.476562 251.769531 L 131.328125 265.707031 L 131.324219 264.273438 Z M 155.472656 250.335938 " fill-opacity="1" fill-rule="nonzero"/><path fill="#e4e8f4" d="M 152.574219 240.402344 L 152.578125 241.835938 L 131.296875 254.121094 L 131.292969 252.6875 Z M 152.574219 240.402344 " fill-opacity="1" fill-rule="nonzero"/><path fill="#e4e8f4" d="M 146.113281 238.316406 L 146.117188 239.773438 L 131.28125 248.335938 L 131.277344 246.878906 Z M 146.113281 238.316406 " fill-opacity="1" fill-rule="nonzero"/><path fill="#e4e8f4" d="M 167.269531 226.105469 L 167.273438 227.5625 L 149.042969 238.085938 L 149.039062 236.625 Z M 167.269531 226.105469 " fill-opacity="1" fill-rule="nonzero"/><path fill="#e4e8f4" d="M 153.402344 228.316406 L 153.40625 229.75 L 131.265625 242.53125 L 131.257812 241.097656 Z M 153.402344 228.316406 " fill-opacity="1" fill-rule="nonzero"/><path fill="#e4e8f4" d="M 193.746094 216.636719 L 193.75 218.070312 L 189.511719 220.515625 L 189.507812 219.082031 Z M 193.746094 216.636719 " fill-opacity="1" fill-rule="nonzero"/><path fill="#e4e8f4" d="M 193.726562 210.832031 L 193.730469 212.289062 L 169.585938 226.226562 L 169.582031 224.769531 Z M 193.726562 210.832031 " fill-opacity="1" fill-rule="nonzero"/><path fill="#e4e8f4" d="M 193.710938 205.046875 L 193.714844 206.484375 L 183.566406 212.339844 L 183.5625 210.90625 Z M 193.710938 205.046875 " fill-opacity="1" fill-rule="nonzero"/><path fill="#e4e8f4" d="M 173.324219 228.425781 L 173.328125 229.859375 L 156.28125 239.699219 L 156.277344 238.261719 Z M 173.324219 228.425781 " fill-opacity="1" fill-rule="nonzero"/><path fill="#e4e8f4" d="M 180.410156 212.726562 L 180.414062 214.160156 L 155.636719 228.464844 L 155.628906 227.03125 Z M 180.410156 212.726562 " fill-opacity="1" fill-rule="nonzero"/><path fill="#e4e8f4" d="M 172.066406 240.757812 L 172.070312 242.191406 L 156.746094 251.039062 L 156.738281 249.605469 Z M 172.066406 240.757812 " fill-opacity="1" fill-rule="nonzero"/><path fill="#e4e8f4" d="M 139.910156 299.957031 L 139.914062 301.390625 L 131.445312 306.28125 L 131.441406 304.847656 Z M 139.910156 299.957031 " fill-opacity="1" fill-rule="nonzero"/><path fill="#e4e8f4" d="M 224.527344 187.261719 L 224.53125 188.695312 L 202.433594 201.453125 L 202.429688 200.015625 Z M 224.527344 187.261719 " fill-opacity="1" fill-rule="nonzero"/><path fill="#e4e8f4" d="M 217.8125 196.929688 L 217.816406 198.386719 L 202.449219 207.257812 L 202.445312 205.800781 Z M 217.8125 196.929688 " fill-opacity="1" fill-rule="nonzero"/><path fill="#e4e8f4" d="M 215.667969 221.382812 L 215.671875 222.839844 L 202.515625 230.433594 L 202.511719 228.976562 Z M 215.667969 221.382812 " fill-opacity="1" fill-rule="nonzero"/><path fill="#e4e8f4" d="M 223.5 222.679688 L 223.503906 224.113281 L 202.53125 236.21875 L 202.527344 234.785156 Z M 223.5 222.679688 " fill-opacity="1" fill-rule="nonzero"/><path fill="#e4e8f4" d="M 224.59375 210.4375 L 224.597656 211.875 L 202.5 224.628906 L 202.496094 223.195312 Z M 224.59375 210.4375 " fill-opacity="1" fill-rule="nonzero"/><path fill="#e4e8f4" d="M 211.542969 212.15625 L 211.546875 213.613281 L 202.484375 218.847656 L 202.476562 217.390625 Z M 211.542969 212.15625 " fill-opacity="1" fill-rule="nonzero"/><path fill="#e4e8f4" d="M 224.5 198.886719 L 224.503906 200.320312 L 202.464844 213.039062 L 202.460938 211.605469 Z M 224.5 198.886719 " fill-opacity="1" fill-rule="nonzero"/><path fill="#e4e8f4" d="M 218.316406 237.277344 L 218.320312 238.714844 L 202.5625 247.808594 L 202.558594 246.375 Z M 218.316406 237.277344 " fill-opacity="1" fill-rule="nonzero"/><path fill="#e4e8f4" d="M 210.914062 235.757812 L 210.917969 237.195312 L 202.546875 242.023438 L 202.542969 240.589844 Z M 210.914062 235.757812 " fill-opacity="1" fill-rule="nonzero"/><path fill="#e4e8f4" d="M 210.882812 247.382812 L 210.886719 248.820312 L 202.582031 253.613281 L 202.578125 252.179688 Z M 210.882812 247.382812 " fill-opacity="1" fill-rule="nonzero"/><path fill="#e4e8f4" d="M 211.386719 258.703125 L 211.394531 260.136719 L 202.613281 265.203125 L 202.609375 263.769531 Z M 211.386719 258.703125 " fill-opacity="1" fill-rule="nonzero"/><path fill="#e4e8f4" d="M 218.71875 248.65625 L 218.722656 250.089844 L 202.597656 259.394531 L 202.59375 257.960938 Z M 218.71875 248.65625 " fill-opacity="1" fill-rule="nonzero"/><path fill="#bac1ce" d="M 329.070312 115.136719 C 328.574219 114.847656 327.878906 114.878906 327.117188 115.328125 L 258.75 154.789062 C 257.238281 155.664062 256.027344 157.769531 256.027344 159.507812 L 256.171875 209.554688 L 254.28125 208.457031 C 253.78125 208.167969 253.476562 207.636719 253.472656 207.058594 L 253.332031 157.941406 C 253.332031 156.203125 254.542969 154.097656 256.054688 153.222656 L 324.425781 113.761719 C 325.1875 113.324219 325.882812 113.28125 326.375 113.570312 Z M 329.070312 115.136719 " fill-opacity="1" fill-rule="nonzero"/><path fill="#5b5e71" d="M 327.121094 115.324219 C 328.632812 114.453125 329.859375 115.152344 329.863281 116.886719 L 330.007812 166.933594 L 256.167969 209.554688 L 256.027344 159.507812 C 256.019531 157.773438 257.242188 155.660156 258.75 154.789062 Z M 327.121094 115.324219 " fill-opacity="1" fill-rule="nonzero"/><path fill="#fed57a" d="M 259.390625 159.496094 C 259.386719 158.960938 259.960938 157.972656 260.433594 157.699219 L 326.511719 119.558594 L 326.640625 164.996094 L 259.515625 203.742188 Z M 259.390625 159.496094 " fill-opacity="1" fill-rule="nonzero"/><path fill="#e4e8f4" d="M 256.175781 209.574219 L 256.191406 211.273438 C 256.195312 211.863281 256.519531 212.402344 257.035156 212.683594 L 299.480469 236.625 C 300.980469 237.5 303.414062 237.5 304.925781 236.625 L 373.292969 197.164062 C 374.058594 196.726562 374.4375 196.144531 374.4375 195.574219 L 374.414062 193.683594 C 374.414062 194.253906 374.035156 194.824219 373.273438 195.261719 L 304.914062 234.613281 C 303.402344 235.472656 300.957031 235.472656 299.46875 234.613281 Z M 256.175781 209.574219 " fill-opacity="1" fill-rule="nonzero"/><path fill="#cad0dd" d="M 256.175781 209.570312 L 299.457031 234.714844 C 300.957031 235.585938 303.398438 235.585938 304.90625 234.714844 L 373.269531 195.257812 C 374.785156 194.378906 374.796875 192.96875 373.296875 192.097656 L 330.011719 166.949219 Z M 256.175781 209.570312 " fill-opacity="1" fill-rule="nonzero"/><path fill="#bac1ce" d="M 340.875 210.167969 L 340.503906 210.40625 L 328.6875 217.242188 C 328.046875 217.613281 327.234375 217.613281 326.589844 217.242188 L 319.207031 212.976562 L 318.800781 212.742188 C 318.089844 212.367188 318.089844 211.320312 318.800781 210.949219 L 330.957031 203.875 C 331.632812 203.46875 332.445312 203.46875 333.125 203.839844 L 340.839844 208.339844 C 341.589844 208.746094 341.589844 209.761719 340.875 210.167969 Z M 340.875 210.167969 " fill-opacity="1" fill-rule="nonzero"/><path fill="#5b5e71" d="M 314.34375 186.8125 C 314.195312 186.894531 314.195312 187.035156 314.339844 187.117188 L 317.035156 188.679688 C 317.179688 188.765625 317.410156 188.761719 317.554688 188.675781 L 320.265625 187.113281 C 320.410156 187.027344 320.410156 186.898438 320.265625 186.816406 L 317.574219 185.25 C 317.429688 185.167969 317.199219 185.164062 317.050781 185.246094 Z M 314.34375 186.8125 " fill-opacity="1" fill-rule="nonzero"/><path fill="#5b5e71" d="M 312.015625 193.878906 C 311.871094 193.964844 311.878906 194.097656 312.023438 194.179688 L 314.71875 195.746094 C 314.855469 195.824219 315.082031 195.828125 315.230469 195.746094 L 317.941406 194.179688 C 318.085938 194.097656 318.085938 193.957031 317.949219 193.878906 L 315.257812 192.316406 C 315.113281 192.230469 314.875 192.230469 314.730469 192.316406 Z M 312.015625 193.878906 " fill-opacity="1" fill-rule="nonzero"/><path fill="#5b5e71" d="M 317.019531 190.992188 C 316.875 191.074219 316.875 191.214844 317.019531 191.296875 L 319.710938 192.863281 C 319.847656 192.941406 320.085938 192.941406 320.230469 192.859375 L 325.210938 189.984375 C 325.355469 189.902344 325.347656 189.765625 325.210938 189.6875 L 322.515625 188.125 C 322.375 188.039062 322.144531 188.035156 321.996094 188.117188 Z M 317.019531 190.992188 " fill-opacity="1" fill-rule="nonzero"/><path fill="#5b5e71" d="M 290.023438 212.300781 C 289.878906 212.386719 289.886719 212.519531 290.023438 212.597656 L 292.714844 214.164062 C 292.859375 214.246094 293.089844 214.25 293.234375 214.167969 L 295.945312 212.601562 C 296.089844 212.519531 296.082031 212.386719 295.9375 212.300781 L 293.246094 210.738281 C 293.109375 210.660156 292.878906 210.652344 292.734375 210.738281 Z M 290.023438 212.300781 " fill-opacity="1" fill-rule="nonzero"/><path fill="#5b5e71" d="M 275.558594 214.921875 C 275.421875 215 275.421875 215.140625 275.566406 215.222656 L 278.261719 216.789062 C 278.394531 216.867188 278.632812 216.867188 278.773438 216.789062 L 282.671875 214.539062 C 282.808594 214.460938 282.808594 214.320312 282.671875 214.242188 L 279.980469 212.675781 C 279.835938 212.59375 279.597656 212.59375 279.460938 212.671875 Z M 275.558594 214.921875 " fill-opacity="1" fill-rule="nonzero"/><path fill="#5b5e71" d="M 282.554688 210.886719 C 282.410156 210.96875 282.417969 211.101562 282.5625 211.1875 L 285.257812 212.75 C 285.390625 212.828125 285.621094 212.835938 285.769531 212.75 L 288.480469 211.1875 C 288.625 211.101562 288.617188 210.96875 288.480469 210.890625 L 285.785156 209.324219 C 285.640625 209.242188 285.410156 209.238281 285.265625 209.320312 Z M 282.554688 210.886719 " fill-opacity="1" fill-rule="nonzero"/><path fill="#5b5e71" d="M 287.464844 208.050781 C 287.328125 208.128906 287.328125 208.269531 287.472656 208.351562 L 290.164062 209.917969 C 290.300781 209.996094 290.539062 209.996094 290.675781 209.917969 L 293.386719 208.351562 C 293.53125 208.269531 293.535156 208.128906 293.398438 208.050781 L 290.703125 206.488281 C 290.558594 206.402344 290.320312 206.402344 290.175781 206.488281 Z M 287.464844 208.050781 " fill-opacity="1" fill-rule="nonzero"/><path fill="#5b5e71" d="M 324.285156 198.253906 C 324.140625 198.335938 324.140625 198.464844 324.285156 198.550781 L 326.976562 200.113281 C 327.121094 200.199219 327.34375 200.199219 327.488281 200.113281 L 335.089844 195.726562 C 335.238281 195.644531 335.238281 195.515625 335.09375 195.429688 L 332.398438 193.867188 C 332.253906 193.78125 332.035156 193.78125 331.886719 193.867188 Z M 324.285156 198.253906 " fill-opacity="1" fill-rule="nonzero"/><path fill="#5b5e71" d="M 302.199219 199.546875 C 302.054688 199.628906 302.0625 199.765625 302.207031 199.847656 L 304.898438 201.414062 C 305.035156 201.492188 305.265625 201.496094 305.410156 201.414062 L 308.121094 199.847656 C 308.269531 199.765625 308.261719 199.628906 308.125 199.550781 L 305.429688 197.988281 C 305.285156 197.902344 305.054688 197.898438 304.910156 197.980469 Z M 302.199219 199.546875 " fill-opacity="1" fill-rule="nonzero"/><path fill="#5b5e71" d="M 309.746094 200.917969 C 309.597656 201.003906 309.605469 201.136719 309.742188 201.214844 L 312.4375 202.78125 C 312.582031 202.863281 312.8125 202.871094 312.957031 202.785156 L 315.667969 201.222656 C 315.8125 201.136719 315.804688 201.003906 315.660156 200.921875 L 312.964844 199.355469 C 312.828125 199.277344 312.601562 199.273438 312.453125 199.355469 Z M 309.746094 200.917969 " fill-opacity="1" fill-rule="nonzero"/><path fill="#5b5e71" d="M 297.289062 202.378906 C 297.144531 202.464844 297.144531 202.601562 297.289062 202.6875 L 299.980469 204.25 C 300.117188 204.328125 300.355469 204.328125 300.503906 204.246094 L 303.214844 202.679688 C 303.351562 202.601562 303.351562 202.464844 303.214844 202.386719 L 300.519531 200.820312 C 300.375 200.734375 300.136719 200.734375 300 200.816406 Z M 297.289062 202.378906 " fill-opacity="1" fill-rule="nonzero"/><path fill="#5b5e71" d="M 304.808594 203.765625 C 304.671875 203.847656 304.671875 203.984375 304.808594 204.0625 L 307.5 205.628906 C 307.644531 205.710938 307.886719 205.710938 308.019531 205.632812 L 310.742188 204.0625 C 310.878906 203.984375 310.878906 203.847656 310.734375 203.761719 L 308.039062 202.199219 C 307.90625 202.121094 307.664062 202.121094 307.527344 202.199219 Z M 304.808594 203.765625 " fill-opacity="1" fill-rule="nonzero"/><path fill="#5b5e71" d="M 292.375 205.21875 C 292.234375 205.296875 292.234375 205.4375 292.378906 205.519531 L 295.074219 207.085938 C 295.210938 207.164062 295.449219 207.164062 295.585938 207.085938 L 298.304688 205.515625 C 298.441406 205.4375 298.441406 205.296875 298.308594 205.21875 L 295.613281 203.652344 C 295.46875 203.570312 295.230469 203.570312 295.09375 203.648438 Z M 292.375 205.21875 " fill-opacity="1" fill-rule="nonzero"/><path fill="#5b5e71" d="M 299.882812 206.609375 C 299.738281 206.695312 299.746094 206.828125 299.882812 206.90625 L 302.574219 208.472656 C 302.71875 208.554688 302.949219 208.558594 303.09375 208.476562 L 305.804688 206.910156 C 305.949219 206.828125 305.945312 206.695312 305.800781 206.609375 L 303.105469 205.046875 C 302.96875 204.96875 302.738281 204.960938 302.59375 205.046875 Z M 299.882812 206.609375 " fill-opacity="1" fill-rule="nonzero"/><path fill="#5b5e71" d="M 294.949219 209.460938 C 294.8125 209.539062 294.8125 209.675781 294.949219 209.753906 L 297.640625 211.320312 C 297.785156 211.402344 298.023438 211.402344 298.160156 211.324219 L 300.871094 209.761719 C 301.015625 209.675781 301.019531 209.539062 300.875 209.453125 L 298.179688 207.890625 C 298.042969 207.8125 297.804688 207.8125 297.660156 207.894531 Z M 294.949219 209.460938 " fill-opacity="1" fill-rule="nonzero"/><path fill="#5b5e71" d="M 294.625 215.371094 C 294.488281 215.449219 294.480469 215.585938 294.625 215.667969 L 297.320312 217.234375 C 297.460938 217.316406 297.691406 217.3125 297.832031 217.234375 L 325.71875 201.136719 C 325.863281 201.050781 325.863281 200.921875 325.71875 200.839844 L 323.027344 199.273438 C 322.882812 199.191406 322.660156 199.191406 322.515625 199.273438 Z M 294.625 215.371094 " fill-opacity="1" fill-rule="nonzero"/><path fill="#5b5e71" d="M 314.671875 198.074219 C 314.53125 198.15625 314.53125 198.292969 314.667969 198.371094 L 317.363281 199.9375 C 317.507812 200.019531 317.746094 200.019531 317.882812 199.941406 L 320.601562 198.371094 C 320.738281 198.292969 320.742188 198.15625 320.59375 198.070312 L 317.902344 196.507812 C 317.765625 196.425781 317.527344 196.425781 317.390625 196.507812 Z M 314.671875 198.074219 " fill-opacity="1" fill-rule="nonzero"/><path fill="#5b5e71" d="M 319.628906 195.210938 C 319.484375 195.296875 319.484375 195.433594 319.621094 195.515625 L 322.3125 197.078125 C 322.457031 197.164062 322.695312 197.164062 322.84375 197.078125 L 330.152344 192.859375 C 330.300781 192.773438 330.292969 192.640625 330.148438 192.558594 L 327.453125 190.992188 C 327.316406 190.914062 327.085938 190.910156 326.941406 190.992188 Z M 319.628906 195.210938 " fill-opacity="1" fill-rule="nonzero"/><path fill="#5b5e71" d="M 304.625 192.417969 C 304.480469 192.5 304.480469 192.640625 304.625 192.722656 L 307.320312 194.289062 C 307.460938 194.371094 307.691406 194.367188 307.835938 194.285156 L 310.546875 192.71875 C 310.6875 192.640625 310.695312 192.507812 310.550781 192.421875 L 307.855469 190.859375 C 307.710938 190.773438 307.472656 190.773438 307.335938 190.855469 Z M 304.625 192.417969 " fill-opacity="1" fill-rule="nonzero"/><path fill="#5b5e71" d="M 309.484375 189.613281 C 309.339844 189.699219 309.339844 189.835938 309.484375 189.921875 L 312.175781 191.484375 C 312.320312 191.570312 312.550781 191.5625 312.695312 191.480469 L 315.40625 189.914062 C 315.542969 189.835938 315.550781 189.703125 315.40625 189.621094 L 312.714844 188.054688 C 312.570312 187.972656 312.332031 187.972656 312.195312 188.050781 Z M 309.484375 189.613281 " fill-opacity="1" fill-rule="nonzero"/><path fill="#5b5e71" d="M 285.449219 220.667969 C 285.3125 220.746094 285.304688 220.882812 285.449219 220.964844 L 288.140625 222.53125 C 288.285156 222.613281 288.515625 222.609375 288.652344 222.53125 L 294.992188 218.871094 C 295.136719 218.789062 295.136719 218.660156 294.992188 218.578125 L 292.296875 217.011719 C 292.15625 216.925781 291.933594 216.925781 291.785156 217.011719 Z M 285.449219 220.667969 " fill-opacity="1" fill-rule="nonzero"/><path fill="#5b5e71" d="M 280.503906 217.796875 C 280.367188 217.875 280.367188 218.011719 280.503906 218.09375 L 283.195312 219.65625 C 283.339844 219.742188 283.582031 219.742188 283.714844 219.660156 L 291.140625 215.378906 C 291.285156 215.292969 291.277344 215.160156 291.132812 215.078125 L 288.4375 213.511719 C 288.304688 213.433594 288.074219 213.425781 287.925781 213.511719 Z M 280.503906 217.796875 " fill-opacity="1" fill-rule="nonzero"/><path fill="#5b5e71" d="M 307.109375 196.714844 C 306.964844 196.796875 306.96875 196.929688 307.117188 197.015625 L 309.808594 198.578125 C 309.945312 198.65625 310.175781 198.664062 310.320312 198.578125 L 313.03125 197.015625 C 313.175781 196.929688 313.167969 196.796875 313.035156 196.71875 L 310.339844 195.152344 C 310.195312 195.070312 309.964844 195.066406 309.820312 195.148438 Z M 307.109375 196.714844 " fill-opacity="1" fill-rule="nonzero"/><path fill="#5b5e71" d="M 280.328125 206.441406 C 280.191406 206.519531 280.191406 206.660156 280.335938 206.742188 L 283.03125 208.308594 C 283.175781 208.390625 283.40625 208.386719 283.542969 208.308594 L 286.261719 206.738281 C 286.398438 206.660156 286.40625 206.527344 286.261719 206.441406 L 283.570312 204.875 C 283.425781 204.792969 283.1875 204.792969 283.050781 204.871094 Z M 280.328125 206.441406 " fill-opacity="1" fill-rule="nonzero"/><path fill="#5b5e71" d="M 285.195312 203.632812 C 285.050781 203.71875 285.050781 203.855469 285.195312 203.941406 L 287.886719 205.503906 C 288.03125 205.589844 288.261719 205.582031 288.40625 205.5 L 291.117188 203.933594 C 291.253906 203.855469 291.265625 203.722656 291.121094 203.636719 L 288.425781 202.074219 C 288.28125 201.988281 288.042969 201.988281 287.90625 202.070312 Z M 285.195312 203.632812 " fill-opacity="1" fill-rule="nonzero"/><path fill="#5b5e71" d="M 290.054688 200.832031 C 289.910156 200.914062 289.90625 201.050781 290.050781 201.136719 L 292.746094 202.703125 C 292.890625 202.785156 293.121094 202.78125 293.265625 202.695312 L 295.976562 201.132812 C 296.113281 201.050781 296.121094 200.917969 295.976562 200.835938 L 293.285156 199.269531 C 293.140625 199.1875 292.902344 199.1875 292.765625 199.265625 Z M 290.054688 200.832031 " fill-opacity="1" fill-rule="nonzero"/><path fill="#5b5e71" d="M 299.769531 195.222656 C 299.625 195.304688 299.621094 195.445312 299.765625 195.527344 L 302.460938 197.09375 C 302.605469 197.175781 302.835938 197.171875 302.980469 197.089844 L 305.691406 195.523438 C 305.828125 195.445312 305.835938 195.3125 305.691406 195.226562 L 303 193.664062 C 302.855469 193.578125 302.617188 193.578125 302.480469 193.65625 Z M 299.769531 195.222656 " fill-opacity="1" fill-rule="nonzero"/><path fill="#5b5e71" d="M 294.910156 198.027344 C 294.765625 198.109375 294.765625 198.25 294.910156 198.332031 L 297.601562 199.898438 C 297.746094 199.980469 297.976562 199.976562 298.121094 199.890625 L 300.832031 198.328125 C 300.972656 198.25 300.980469 198.113281 300.835938 198.03125 L 298.140625 196.464844 C 297.996094 196.382812 297.757812 196.382812 297.621094 196.460938 Z M 294.910156 198.027344 " fill-opacity="1" fill-rule="nonzero"/><path fill="#5b5e71" d="M 331.179688 177.089844 C 331.035156 177.175781 331.042969 177.308594 331.1875 177.390625 L 333.882812 178.957031 C 334.023438 179.039062 334.246094 179.039062 334.394531 178.957031 L 337.105469 177.390625 C 337.25 177.308594 337.25 177.179688 337.105469 177.09375 L 334.414062 175.53125 C 334.269531 175.445312 334.039062 175.441406 333.890625 175.527344 Z M 331.179688 177.089844 " fill-opacity="1" fill-rule="nonzero"/><path fill="#5b5e71" d="M 326.324219 179.894531 C 326.179688 179.980469 326.183594 180.113281 326.328125 180.195312 L 329.023438 181.761719 C 329.167969 181.84375 329.390625 181.84375 329.535156 181.761719 L 332.246094 180.195312 C 332.390625 180.113281 332.390625 179.984375 332.25 179.898438 L 329.554688 178.335938 C 329.410156 178.25 329.179688 178.246094 329.035156 178.328125 Z M 326.324219 179.894531 " fill-opacity="1" fill-rule="nonzero"/><path fill="#5b5e71" d="M 336.125 179.964844 C 335.980469 180.046875 335.988281 180.179688 336.132812 180.265625 L 338.828125 181.828125 C 338.964844 181.910156 339.191406 181.914062 339.339844 181.828125 L 342.050781 180.265625 C 342.195312 180.179688 342.1875 180.046875 342.050781 179.96875 L 339.355469 178.402344 C 339.210938 178.320312 338.980469 178.316406 338.835938 178.398438 Z M 336.125 179.964844 " fill-opacity="1" fill-rule="nonzero"/><path fill="#5b5e71" d="M 331.269531 182.769531 C 331.121094 182.851562 331.128906 182.984375 331.277344 183.070312 L 333.96875 184.632812 C 334.105469 184.710938 334.335938 184.71875 334.480469 184.632812 L 337.191406 183.070312 C 337.335938 182.984375 337.328125 182.851562 337.195312 182.773438 L 334.5 181.207031 C 334.355469 181.125 334.125 181.117188 333.980469 181.203125 Z M 331.269531 182.769531 " fill-opacity="1" fill-rule="nonzero"/><path fill="#5b5e71" d="M 341.070312 182.835938 C 340.925781 182.921875 340.933594 183.054688 341.070312 183.132812 L 343.761719 184.699219 C 343.90625 184.78125 344.136719 184.789062 344.28125 184.703125 L 346.992188 183.140625 C 347.136719 183.054688 347.128906 182.921875 346.984375 182.839844 L 344.292969 181.273438 C 344.15625 181.195312 343.925781 181.191406 343.78125 181.273438 Z M 341.070312 182.835938 " fill-opacity="1" fill-rule="nonzero"/><path fill="#5b5e71" d="M 345.992188 185.574219 C 345.847656 185.65625 345.855469 185.789062 345.992188 185.867188 L 348.683594 187.433594 C 348.828125 187.515625 349.058594 187.523438 349.207031 187.4375 L 351.917969 185.875 C 352.0625 185.789062 352.054688 185.65625 351.910156 185.574219 L 349.214844 184.007812 C 349.078125 183.929688 348.847656 183.925781 348.703125 184.007812 Z M 345.992188 185.574219 " fill-opacity="1" fill-rule="nonzero"/><path fill="#5b5e71" d="M 326.410156 185.570312 C 326.265625 185.65625 326.273438 185.789062 326.417969 185.871094 L 329.109375 187.4375 C 329.246094 187.515625 329.476562 187.519531 329.621094 187.4375 L 332.332031 185.871094 C 332.480469 185.789062 332.472656 185.65625 332.335938 185.578125 L 329.640625 184.011719 C 329.496094 183.925781 329.265625 183.921875 329.121094 184.007812 Z M 326.410156 185.570312 " fill-opacity="1" fill-rule="nonzero"/><path fill="#5b5e71" d="M 336.214844 185.640625 C 336.066406 185.726562 336.074219 185.859375 336.210938 185.9375 L 338.90625 187.503906 C 339.050781 187.585938 339.28125 187.589844 339.425781 187.507812 L 342.136719 185.941406 C 342.28125 185.859375 342.273438 185.726562 342.128906 185.640625 L 339.433594 184.078125 C 339.300781 184 339.070312 183.992188 338.921875 184.078125 Z M 336.214844 185.640625 " fill-opacity="1" fill-rule="nonzero"/><path fill="#5b5e71" d="M 331.355469 188.445312 C 331.210938 188.527344 331.21875 188.664062 331.355469 188.742188 L 334.046875 190.304688 C 334.191406 190.390625 334.421875 190.394531 334.566406 190.3125 L 337.277344 188.746094 C 337.421875 188.664062 337.417969 188.527344 337.269531 188.445312 L 334.578125 186.878906 C 334.441406 186.800781 334.210938 186.796875 334.066406 186.878906 Z M 331.355469 188.445312 " fill-opacity="1" fill-rule="nonzero"/><path fill="#5b5e71" d="M 341.15625 188.515625 C 341.011719 188.597656 341.011719 188.726562 341.15625 188.8125 L 343.851562 190.375 C 343.992188 190.460938 344.214844 190.460938 344.363281 190.375 L 347.074219 188.8125 C 347.21875 188.726562 347.21875 188.597656 347.074219 188.515625 L 344.378906 186.949219 C 344.238281 186.867188 344.015625 186.867188 343.867188 186.949219 Z M 341.15625 188.515625 " fill-opacity="1" fill-rule="nonzero"/><path fill="#5b5e71" d="M 336.300781 191.316406 C 336.15625 191.402344 336.15625 191.53125 336.296875 191.613281 L 338.992188 193.179688 C 339.136719 193.261719 339.359375 193.261719 339.503906 193.179688 L 342.214844 191.613281 C 342.359375 191.53125 342.359375 191.402344 342.21875 191.316406 L 339.523438 189.753906 C 339.378906 189.667969 339.15625 189.667969 339.011719 189.753906 Z M 336.300781 191.316406 " fill-opacity="1" fill-rule="nonzero"/><path fill="#5b5e71" d="M 321.464844 182.699219 C 321.320312 182.78125 321.328125 182.917969 321.472656 183 L 324.164062 184.5625 C 324.308594 184.648438 324.53125 184.648438 324.675781 184.5625 L 327.386719 183 C 327.535156 182.917969 327.535156 182.789062 327.390625 182.703125 L 324.695312 181.140625 C 324.550781 181.054688 324.320312 181.050781 324.175781 181.132812 Z M 321.464844 182.699219 " fill-opacity="1" fill-rule="nonzero"/><path fill="#5b5e71" d="M 275.472656 209.246094 C 275.335938 209.324219 275.332031 209.464844 275.480469 209.546875 L 278.171875 211.113281 C 278.316406 211.195312 278.546875 211.191406 278.683594 211.113281 L 281.402344 209.542969 C 281.542969 209.464844 281.550781 209.332031 281.40625 209.246094 L 278.710938 207.679688 C 278.566406 207.597656 278.328125 207.597656 278.191406 207.675781 Z M 275.472656 209.246094 " fill-opacity="1" fill-rule="nonzero"/><path fill="#5b5e71" d="M 270.613281 212.050781 C 270.476562 212.128906 270.476562 212.269531 270.621094 212.351562 L 273.316406 213.917969 C 273.460938 214 273.691406 213.996094 273.828125 213.917969 L 276.539062 212.351562 C 276.683594 212.269531 276.691406 212.132812 276.546875 212.050781 L 273.855469 210.484375 C 273.710938 210.402344 273.472656 210.402344 273.328125 210.484375 Z M 270.613281 212.050781 " fill-opacity="1" fill-rule="nonzero"/><path fill="#5b5e71" d="M 302.992188 187.617188 C 302.855469 187.695312 302.851562 187.824219 302.988281 187.902344 L 304.160156 188.582031 C 304.296875 188.660156 304.519531 188.660156 304.65625 188.582031 L 307.265625 187.078125 C 307.402344 187 307.402344 186.871094 307.265625 186.792969 L 306.09375 186.109375 C 305.957031 186.03125 305.738281 186.03125 305.601562 186.109375 Z M 302.992188 187.617188 " fill-opacity="1" fill-rule="nonzero"/><path fill="#5b5e71" d="M 307.660156 184.921875 C 307.523438 185 307.523438 185.128906 307.660156 185.207031 L 308.832031 185.886719 C 308.96875 185.964844 309.191406 185.964844 309.324219 185.886719 L 311.933594 184.382812 C 312.070312 184.304688 312.070312 184.175781 311.9375 184.097656 L 310.761719 183.414062 C 310.628906 183.335938 310.40625 183.335938 310.269531 183.414062 Z M 307.660156 184.921875 " fill-opacity="1" fill-rule="nonzero"/><path fill="#5b5e71" d="M 312.332031 182.226562 C 312.191406 182.304688 312.191406 182.429688 312.328125 182.511719 L 313.5 183.191406 C 313.636719 183.269531 313.859375 183.269531 313.996094 183.191406 L 315.308594 182.433594 C 315.445312 182.355469 315.449219 182.226562 315.3125 182.144531 L 314.140625 181.464844 C 314.003906 181.386719 313.78125 181.386719 313.644531 181.464844 Z M 312.332031 182.226562 " fill-opacity="1" fill-rule="nonzero"/><path fill="#5b5e71" d="M 321.667969 176.835938 C 321.53125 176.914062 321.53125 177.042969 321.667969 177.121094 L 322.839844 177.800781 C 322.976562 177.878906 323.199219 177.878906 323.335938 177.800781 L 325.933594 176.300781 C 326.078125 176.21875 326.082031 176.089844 325.945312 176.007812 L 324.773438 175.328125 C 324.636719 175.25 324.414062 175.25 324.269531 175.332031 Z M 321.667969 176.835938 " fill-opacity="1" fill-rule="nonzero"/><path fill="#5b5e71" d="M 317 179.53125 C 316.863281 179.609375 316.863281 179.738281 316.996094 179.816406 L 318.171875 180.496094 C 318.304688 180.578125 318.527344 180.578125 318.664062 180.496094 L 321.273438 178.992188 C 321.410156 178.914062 321.410156 178.785156 321.273438 178.707031 L 320.101562 178.023438 C 319.964844 177.945312 319.742188 177.945312 319.609375 178.023438 Z M 317 179.53125 " fill-opacity="1" fill-rule="nonzero"/><path fill="#5b5e71" d="M 326.339844 174.140625 C 326.203125 174.21875 326.199219 174.347656 326.335938 174.425781 L 327.507812 175.105469 C 327.644531 175.183594 327.867188 175.183594 328.003906 175.105469 L 330.605469 173.605469 C 330.742188 173.527344 330.742188 173.398438 330.605469 173.320312 L 329.433594 172.640625 C 329.296875 172.558594 329.074219 172.558594 328.9375 172.640625 Z M 326.339844 174.140625 " fill-opacity="1" fill-rule="nonzero"/><path fill="#5b5e71" d="M 288.992188 195.695312 C 288.855469 195.773438 288.855469 195.902344 288.992188 195.980469 L 290.164062 196.664062 C 290.296875 196.742188 290.519531 196.742188 290.65625 196.664062 L 293.257812 195.164062 C 293.394531 195.082031 293.394531 194.957031 293.257812 194.875 L 292.085938 194.195312 C 291.949219 194.117188 291.726562 194.117188 291.59375 194.195312 Z M 288.992188 195.695312 " fill-opacity="1" fill-rule="nonzero"/><path fill="#5b5e71" d="M 293.660156 193 C 293.515625 193.085938 293.515625 193.214844 293.652344 193.292969 L 294.824219 193.972656 C 294.957031 194.050781 295.179688 194.050781 295.324219 193.96875 L 297.925781 192.46875 C 298.0625 192.390625 298.0625 192.261719 297.925781 192.179688 L 296.753906 191.5 C 296.617188 191.421875 296.398438 191.421875 296.261719 191.5 Z M 293.660156 193 " fill-opacity="1" fill-rule="nonzero"/><path fill="#5b5e71" d="M 298.320312 190.3125 C 298.183594 190.390625 298.183594 190.519531 298.320312 190.597656 L 299.492188 191.277344 C 299.628906 191.355469 299.851562 191.355469 299.988281 191.277344 L 302.59375 189.773438 C 302.730469 189.695312 302.734375 189.566406 302.597656 189.484375 L 301.425781 188.804688 C 301.289062 188.726562 301.066406 188.726562 300.929688 188.804688 Z M 298.320312 190.3125 " fill-opacity="1" fill-rule="nonzero"/><path fill="#5b5e71" d="M 274.984375 203.78125 C 274.847656 203.859375 274.84375 203.988281 274.980469 204.070312 L 276.152344 204.75 C 276.289062 204.828125 276.511719 204.828125 276.648438 204.75 L 279.257812 203.242188 C 279.394531 203.164062 279.394531 203.035156 279.257812 202.957031 L 278.085938 202.277344 C 277.949219 202.199219 277.726562 202.199219 277.589844 202.277344 Z M 274.984375 203.78125 " fill-opacity="1" fill-rule="nonzero"/><path fill="#5b5e71" d="M 279.652344 201.085938 C 279.515625 201.164062 279.515625 201.292969 279.652344 201.371094 L 280.824219 202.054688 C 280.960938 202.132812 281.179688 202.132812 281.316406 202.054688 L 283.925781 200.546875 C 284.0625 200.46875 284.0625 200.339844 283.925781 200.261719 L 282.753906 199.582031 C 282.621094 199.5 282.398438 199.5 282.261719 199.582031 Z M 279.652344 201.085938 " fill-opacity="1" fill-rule="nonzero"/><path fill="#5b5e71" d="M 284.320312 198.390625 C 284.183594 198.46875 284.183594 198.597656 284.320312 198.679688 L 285.492188 199.359375 C 285.628906 199.4375 285.851562 199.4375 285.988281 199.359375 L 288.585938 197.859375 C 288.722656 197.78125 288.726562 197.652344 288.589844 197.570312 L 287.417969 196.890625 C 287.28125 196.8125 287.058594 196.8125 286.921875 196.890625 Z M 284.320312 198.390625 " fill-opacity="1" fill-rule="nonzero"/><path fill="#5b5e71" d="M 270.3125 206.476562 C 270.175781 206.554688 270.175781 206.683594 270.3125 206.761719 L 271.484375 207.445312 C 271.621094 207.523438 271.84375 207.523438 271.980469 207.445312 L 274.585938 205.9375 C 274.722656 205.859375 274.726562 205.730469 274.589844 205.652344 L 273.417969 204.972656 C 273.28125 204.890625 273.058594 204.890625 272.921875 204.972656 Z M 270.3125 206.476562 " fill-opacity="1" fill-rule="nonzero"/><path fill="#5b5e71" d="M 265.644531 209.171875 C 265.507812 209.25 265.507812 209.378906 265.644531 209.460938 L 266.816406 210.140625 C 266.953125 210.21875 267.171875 210.21875 267.308594 210.140625 L 269.917969 208.632812 C 270.054688 208.554688 270.054688 208.425781 269.917969 208.347656 L 268.746094 207.667969 C 268.609375 207.589844 268.390625 207.589844 268.253906 207.667969 Z M 265.644531 209.171875 " fill-opacity="1" fill-rule="nonzero"/><path fill="#bac1ce" d="M 266.386719 216.351562 L 266.378906 217.003906 L 269.917969 219.042969 L 269.925781 218.394531 Z M 266.386719 216.351562 " fill-opacity="1" fill-rule="nonzero"/><path fill="#bac1ce" d="M 262.996094 214.394531 L 262.992188 215.046875 L 264.980469 216.195312 L 264.988281 215.542969 Z M 262.996094 214.394531 " fill-opacity="1" fill-rule="nonzero"/><path fill="#ffffff" d="M 298.074219 142.609375 C 303.332031 139.574219 307.605469 142.007812 307.625 148.050781 C 307.625 148.714844 307.582031 149.394531 307.464844 150.117188 C 311.660156 148.203125 314.96875 150.421875 314.980469 155.394531 C 314.996094 160.730469 311.234375 167.226562 306.605469 169.902344 L 280.625 184.898438 C 277.015625 186.980469 274.070312 185.300781 274.058594 181.15625 C 274.050781 178.128906 275.597656 174.601562 277.847656 172.117188 C 277.753906 171.542969 277.679688 170.945312 277.679688 170.265625 C 277.664062 164.984375 281.402344 158.527344 285.996094 155.871094 C 287.144531 155.207031 288.25 154.839844 289.238281 154.761719 C 290.59375 149.851562 294.046875 144.933594 298.074219 142.609375 Z M 298.074219 142.609375 " fill-opacity="1" fill-rule="nonzero"/><path fill="#416e84" d="M 41.671875 318.222656 C 41.335938 318.222656 41 318.136719 40.6875 317.957031 L 1.167969 294.828125 C 0.578125 294.476562 0.214844 293.84375 0.210938 293.15625 L 0.113281 260.082031 C 0.109375 259.386719 0.480469 258.742188 1.085938 258.398438 L 114.105469 193.160156 L 113.917969 127.371094 C 113.914062 126.304688 114.78125 125.433594 115.855469 125.429688 L 115.859375 125.429688 C 116.929688 125.429688 117.796875 126.292969 117.800781 127.363281 L 117.992188 194.277344 C 117.996094 194.96875 117.625 195.613281 117.019531 195.957031 L 4 261.195312 L 4.085938 292.035156 L 42.652344 314.609375 C 43.578125 315.148438 43.886719 316.339844 43.347656 317.265625 C 42.984375 317.878906 42.335938 318.222656 41.671875 318.222656 Z M 41.671875 318.222656 " fill-opacity="1" fill-rule="nonzero"/><path fill="#525566" d="M 7.234375 320.691406 L 7.234375 325.636719 C 7.234375 326.242188 7.628906 326.847656 8.449219 327.304688 L 74.996094 365.984375 C 76.601562 366.921875 79.242188 366.921875 80.851562 365.984375 L 119.054688 343.929688 C 119.875 343.445312 120.296875 342.835938 120.296875 342.199219 L 120.269531 337.253906 C 120.269531 337.890625 119.875 338.5 119.054688 338.984375 L 80.851562 361.039062 C 79.210938 361.980469 76.601562 361.980469 74.996094 361.039062 L 8.417969 322.359375 C 7.628906 321.902344 7.234375 321.296875 7.234375 320.691406 Z M 7.234375 320.691406 " fill-opacity="1" fill-rule="nonzero"/><path fill="#5b5e71" d="M 8.457031 318.96875 C 6.832031 319.90625 6.820312 321.425781 8.417969 322.355469 L 74.980469 361.027344 C 76.597656 361.964844 79.222656 361.964844 80.851562 361.027344 L 119.054688 338.972656 C 120.683594 338.035156 120.691406 336.511719 119.074219 335.574219 L 52.515625 296.902344 C 50.917969 295.976562 48.289062 295.976562 46.664062 296.914062 Z M 8.457031 318.96875 " fill-opacity="1" fill-rule="nonzero"/><path fill="#525566" d="M 94.339844 346.617188 C 93.410156 347.152344 93.402344 348.046875 94.347656 348.59375 C 95.269531 349.132812 96.796875 349.121094 97.726562 348.582031 C 98.675781 348.035156 98.679688 347.164062 97.757812 346.628906 C 96.8125 346.078125 95.289062 346.066406 94.339844 346.617188 Z M 94.339844 346.617188 " fill-opacity="1" fill-rule="nonzero"/><path fill="#525566" d="M 29.609375 309.007812 C 28.96875 309.375 28.964844 309.957031 29.601562 310.328125 C 30.234375 310.695312 31.238281 310.695312 31.878906 310.328125 C 32.519531 309.957031 32.523438 309.375 31.886719 309.007812 C 31.253906 308.640625 30.246094 308.640625 29.609375 309.007812 Z M 29.609375 309.007812 " fill-opacity="1" fill-rule="nonzero"/><path fill="#525566" d="M 79.417969 356.007812 C 78.855469 356.332031 78.851562 356.871094 79.410156 357.195312 C 79.988281 357.53125 80.894531 357.519531 81.457031 357.195312 L 84.980469 355.160156 C 85.542969 354.835938 85.566406 354.308594 84.988281 353.972656 C 84.429688 353.648438 83.503906 353.648438 82.941406 353.972656 Z M 79.417969 356.007812 " fill-opacity="1" fill-rule="nonzero"/><path fill="#525566" d="M 106.65625 340.285156 C 106.09375 340.609375 106.089844 341.148438 106.648438 341.472656 C 107.226562 341.808594 108.132812 341.796875 108.695312 341.472656 L 112.222656 339.4375 C 112.785156 339.113281 112.804688 338.585938 112.226562 338.25 C 111.671875 337.925781 110.742188 337.925781 110.183594 338.25 Z M 106.65625 340.285156 " fill-opacity="1" fill-rule="nonzero"/><path fill="#9ad898" d="M 14.859375 322.113281 L 73.527344 356.199219 L 110.976562 334.582031 L 52.308594 300.496094 Z M 14.859375 322.113281 " fill-opacity="1" fill-rule="nonzero"/><path fill="#cad0dd" d="M 228.292969 35.023438 C 222.542969 31.648438 214.566406 32.109375 205.746094 37.25 L 204.289062 38.167969 L 186.570312 27.816406 L 188.027344 26.894531 C 196.847656 21.835938 210.117188 24.441406 215.945312 27.816406 Z M 228.292969 35.023438 " fill-opacity="1" fill-rule="nonzero"/><path fill="#bac1ce" d="M 184.210938 3.769531 L 196.605469 10.96875 C 191.347656 7.914062 184.074219 8.335938 176.015625 12.988281 C 172.226562 15.175781 168.566406 18.101562 165.230469 21.578125 L 152.839844 14.378906 C 156.175781 10.898438 159.835938 7.972656 163.625 5.785156 C 171.679688 1.136719 178.957031 0.714844 184.210938 3.769531 Z M 184.210938 3.769531 " fill-opacity="1" fill-rule="nonzero"/><path fill="#cad0dd" d="M 157.503906 11.410156 C 151.753906 8.109375 143.777344 8.570312 134.878906 13.632812 C 121 21.683594 109.265625 38.78125 105.046875 55.496094 L 92.664062 48.320312 C 96.882812 31.605469 108.617188 14.429688 122.5 6.457031 C 131.316406 1.320312 139.371094 0.859375 145.121094 4.230469 Z M 157.503906 11.410156 " fill-opacity="1" fill-rule="nonzero"/><path fill="#cad0dd" d="M 43.804688 192.980469 L 31.414062 185.78125 C 25.707031 182.46875 22.171875 175.40625 22.144531 165.351562 C 22.085938 145.28125 36.234375 120.707031 53.773438 110.585938 C 54.480469 110.175781 55.121094 109.804688 55.828125 109.472656 L 68.222656 116.671875 C 67.515625 117.003906 66.871094 117.375 66.164062 117.785156 C 48.628906 127.90625 34.480469 152.480469 34.535156 172.554688 C 34.566406 182.605469 38.101562 189.667969 43.804688 192.980469 Z M 43.804688 192.980469 " fill-opacity="1" fill-rule="nonzero"/><path fill="#bac1ce" d="M 68.222656 116.671875 L 55.828125 109.472656 C 55.242188 107.222656 54.914062 104.753906 54.90625 101.949219 C 54.855469 83.574219 67.851562 61.066406 83.71875 51.910156 C 86.867188 50.09375 89.886719 48.941406 92.648438 48.304688 L 105.042969 55.507812 C 102.277344 56.140625 99.257812 57.292969 96.109375 59.109375 C 80.246094 68.265625 67.25 90.773438 67.300781 109.148438 C 67.308594 111.953125 67.636719 114.421875 68.222656 116.671875 Z M 68.222656 116.671875 " fill-opacity="1" fill-rule="nonzero"/><path fill="#e4e8f4" d="M 237.574219 55.34375 C 237.652344 75.585938 223.460938 100.042969 205.976562 110.164062 L 66.390625 190.75 C 48.828125 200.871094 34.566406 192.746094 34.566406 172.578125 C 34.488281 152.492188 48.601562 127.878906 66.164062 117.757812 C 66.851562 117.375 67.542969 116.988281 68.234375 116.683594 C 67.621094 114.457031 67.3125 111.929688 67.3125 109.167969 C 67.234375 90.765625 80.273438 68.300781 96.074219 59.097656 C 99.296875 57.257812 102.285156 56.109375 105.046875 55.496094 C 109.265625 38.78125 121 21.683594 134.882812 13.632812 C 149.070312 5.425781 161.109375 9.261719 165.253906 21.605469 C 168.550781 18.078125 172.230469 15.164062 175.988281 13.019531 C 192.09375 3.738281 205.058594 11.253906 205.058594 29.65625 C 205.058594 32.417969 204.75 35.253906 204.289062 38.167969 L 205.746094 37.25 C 223.308594 27.128906 237.496094 35.253906 237.574219 55.34375 Z M 237.574219 55.34375 " fill-opacity="1" fill-rule="nonzero"/><path fill="#4c7891" d="M 138.78125 97.28125 L 130.164062 103.449219 C 129.738281 105.226562 129.132812 107.023438 128.382812 108.859375 L 133.96875 113.648438 L 127.277344 125.199219 L 119.933594 122.828125 C 118.894531 124.046875 117.746094 125.207031 116.5625 126.21875 L 115.480469 137.628906 L 106.070312 143.058594 L 104.929688 132.933594 C 103.777344 133.265625 102.589844 133.457031 101.511719 133.460938 L 94.207031 144.289062 L 87.503906 140.46875 L 93.011719 129.273438 C 92.253906 128.308594 91.675781 127.195312 91.238281 125.917969 L 82.582031 129.714844 L 82.550781 118.867188 L 90.59375 113.109375 C 90.945312 111.046875 91.515625 108.902344 92.300781 106.753906 L 87.398438 102.476562 L 94.054688 90.949219 L 99.921875 92.890625 C 101.5 90.867188 103.253906 88.945312 105.050781 87.371094 L 105.886719 78.5 L 115.296875 73.070312 L 116.183594 80.945312 C 118.015625 80.425781 119.777344 80.316406 121.324219 80.539062 L 127.125 71.859375 L 133.863281 75.65625 L 129 85.570312 C 129.757812 86.828125 130.339844 88.308594 130.738281 89.9375 L 138.75 86.429688 Z M 110.730469 124.460938 C 118.59375 119.921875 124.964844 108.890625 124.9375 99.855469 C 124.914062 90.820312 118.5 87.167969 110.636719 91.707031 C 102.773438 96.246094 96.402344 107.277344 96.429688 116.3125 C 96.453125 125.347656 102.863281 129 110.730469 124.460938 " fill-opacity="1" fill-rule="nonzero"/><path fill="#f9607f" d="M 174.535156 47.800781 L 167.855469 52.066406 C 167.464844 53.410156 166.964844 54.8125 166.320312 56.21875 L 170.253906 60.4375 L 164.777344 69.09375 L 159.410156 66.695312 C 158.585938 67.625 157.652344 68.496094 156.753906 69.179688 L 155.449219 78.152344 L 148.230469 81.785156 L 147.8125 73.679688 C 146.914062 73.867188 146.050781 73.910156 145.257812 73.832031 L 139.3125 81.933594 L 134.519531 78.417969 L 139.0625 69.929688 C 138.554688 69.105469 138.195312 68.15625 137.902344 67.128906 L 131.292969 69.539062 L 131.734375 60.894531 L 137.980469 56.917969 C 138.335938 55.265625 138.835938 53.65625 139.515625 51.984375 L 136.050781 48.238281 L 141.492188 39.601562 L 145.8125 41.527344 C 147.03125 40.039062 148.433594 38.652344 149.832031 37.515625 L 150.855469 30.519531 L 158.109375 26.867188 L 158.414062 33.179688 C 159.78125 32.929688 161.109375 32.945312 162.265625 33.230469 L 166.957031 26.761719 L 171.824219 30.234375 L 167.78125 37.773438 C 168.285156 38.847656 168.648438 40.039062 168.867188 41.359375 L 175.011719 39.136719 Z M 164.105469 48.859375 C 164.480469 41.660156 159.871094 38.332031 153.835938 41.363281 C 153.589844 41.484375 153.347656 41.617188 153.105469 41.753906 C 147.355469 45.074219 142.558594 52.984375 142.199219 59.855469 C 141.820312 67.054688 146.433594 70.382812 152.46875 67.355469 C 152.714844 67.230469 152.957031 67.101562 153.195312 66.960938 C 158.949219 63.640625 163.746094 55.734375 164.105469 48.859375 " fill-opacity="1" fill-rule="nonzero"/><path fill="#bac1ce" d="M 176.742188 103.421875 L 170.066406 107.734375 C 169.671875 109.074219 169.136719 110.5 168.527344 111.839844 L 172.460938 116.101562 L 166.984375 124.757812 L 161.582031 122.378906 C 160.792969 123.25 159.859375 124.117188 158.964844 124.839844 L 157.65625 133.816406 L 150.402344 137.46875 L 149.984375 129.363281 C 149.121094 129.53125 148.257812 129.574219 147.429688 129.515625 L 141.519531 137.597656 L 136.726562 134.082031 L 141.269531 125.59375 C 140.761719 124.769531 140.363281 123.84375 140.109375 122.792969 L 133.5 125.203125 L 133.941406 116.558594 L 140.1875 112.582031 C 140.542969 110.929688 141.042969 109.320312 141.722656 107.648438 L 138.257812 103.902344 L 143.699219 95.222656 L 147.988281 97.210938 C 149.242188 95.660156 150.640625 94.277344 152.039062 93.179688 L 153.0625 86.140625 L 160.316406 82.492188 L 160.585938 88.863281 C 161.988281 88.59375 163.320312 88.566406 164.472656 88.894531 L 169.164062 82.425781 L 173.996094 85.917969 L 169.953125 93.457031 C 170.492188 94.46875 170.820312 95.683594 171.078125 97.023438 L 177.183594 94.820312 Z M 166.316406 104.484375 C 166.691406 97.324219 162.078125 93.957031 156.042969 96.984375 C 155.820312 97.097656 155.597656 97.21875 155.378906 97.34375 C 149.597656 100.683594 144.765625 108.625 144.40625 115.519531 C 144.03125 122.675781 148.644531 126.046875 154.679688 123.019531 C 154.921875 122.894531 155.164062 122.765625 155.40625 122.625 C 161.15625 119.304688 165.953125 111.394531 166.316406 104.484375 " fill-opacity="1" fill-rule="nonzero"/><path fill="#ffffff" d="M 51.1875 321.539062 C 48.867188 322.878906 48.476562 324.863281 49.957031 326.386719 C 49.226562 326.589844 48.527344 326.84375 47.921875 327.195312 C 45.125 328.808594 45.078125 331.433594 47.890625 333.066406 L 48.046875 333.121094 C 46.296875 334.71875 46.632812 336.828125 49.035156 338.226562 C 51.78125 339.820312 56.28125 339.820312 59.113281 338.1875 L 79.59375 326.367188 C 82.390625 324.75 82.40625 322.144531 79.65625 320.546875 C 77.351562 319.207031 73.769531 318.96875 71.070312 319.871094 L 70.945312 319.761719 C 68.132812 318.125 63.664062 318.109375 60.867188 319.722656 C 60.261719 320.070312 59.847656 320.457031 59.527344 320.859375 C 56.871094 320.015625 53.445312 320.238281 51.1875 321.539062 Z M 51.1875 321.539062 " fill-opacity="1" fill-rule="nonzero"/><path fill="#bac1ce" d="M 148.523438 341.390625 L 290.765625 258.75 C 289.960938 259.21875 289.457031 260.207031 289.453125 261.617188 C 289.445312 264.449219 291.457031 267.929688 293.921875 269.351562 C 295.160156 270.066406 296.289062 270.132812 297.105469 269.65625 L 154.867188 352.296875 C 154.050781 352.773438 152.921875 352.707031 151.679688 351.992188 C 149.214844 350.570312 147.207031 347.089844 147.214844 344.257812 C 147.21875 342.847656 147.71875 341.859375 148.523438 341.390625 Z M 148.523438 341.390625 " fill-opacity="1" fill-rule="nonzero"/><path fill="#bac1ce" d="M 298.203125 271.546875 L 155.964844 354.1875 C 157.042969 353.558594 157.714844 352.222656 157.71875 350.320312 L 299.960938 267.679688 C 299.953125 269.582031 299.285156 270.917969 298.203125 271.546875 Z M 298.203125 271.546875 " fill-opacity="1" fill-rule="nonzero"/><path fill="#a6afbc" d="M 156.179688 349.429688 L 298.417969 266.789062 L 299.957031 267.679688 L 157.71875 350.320312 Z M 156.179688 349.429688 " fill-opacity="1" fill-rule="nonzero"/><g clip-path="url(#d1e2fac3af)"><path fill="#a6afbc" d="M 208.535156 372.449219 L 350.777344 289.808594 L 350.769531 291.578125 L 208.53125 374.21875 Z M 208.535156 372.449219 " fill-opacity="1" fill-rule="nonzero"/></g><path fill="#d4dae8" d="M 350.796875 289.824219 L 208.515625 372.460938 L 151.707031 339.945312 C 150.039062 338.9375 148.503906 338.847656 147.449219 339.503906 L 289.6875 256.867188 C 290.785156 256.210938 292.277344 256.300781 293.941406 257.265625 Z M 350.796875 289.824219 " fill-opacity="1" fill-rule="nonzero"/><g clip-path="url(#53fa9c7cda)"><path fill="#cad0dd" d="M 208.535156 372.449219 L 208.53125 374.21875 L 151.710938 341.695312 C 149.246094 340.273438 147.222656 341.425781 147.214844 344.253906 C 147.207031 347.089844 149.214844 350.570312 151.683594 351.992188 C 154.148438 353.414062 156.167969 352.261719 156.179688 349.429688 L 157.71875 350.320312 C 157.707031 354.148438 155.011719 355.6875 151.675781 353.761719 C 148.34375 351.839844 145.664062 347.195312 145.675781 343.367188 C 145.6875 339.539062 148.382812 338 151.71875 339.925781 Z M 208.535156 372.449219 " fill-opacity="1" fill-rule="nonzero"/></g><path fill="#bac1ce" d="M 175.316406 346.230469 L 175.347656 346.640625 L 181.898438 350.445312 L 182.601562 350.464844 L 192.050781 345.011719 L 192.050781 344.585938 L 185.5 340.777344 L 184.765625 340.777344 Z M 175.316406 346.230469 " fill-opacity="1" fill-rule="nonzero"/><path fill="#bac1ce" d="M 200.949219 361.265625 L 200.945312 361.691406 L 207.5 365.496094 L 208.203125 365.480469 L 215.257812 361.40625 L 215.289062 361 L 208.738281 357.191406 L 208.003906 357.191406 Z M 200.949219 361.265625 " fill-opacity="1" fill-rule="nonzero"/><path fill="#bac1ce" d="M 210.210938 355.917969 L 210.242188 356.324219 L 216.792969 360.132812 L 217.464844 360.132812 L 224.519531 356.058594 L 224.554688 355.652344 L 218 351.84375 L 217.269531 351.84375 Z M 210.210938 355.917969 " fill-opacity="1" fill-rule="nonzero"/><path fill="#bac1ce" d="M 229.441406 334.863281 L 229.46875 335.273438 L 236.023438 339.078125 L 236.722656 339.097656 L 243.78125 335.023438 L 243.78125 334.597656 L 237.230469 330.792969 L 236.496094 330.792969 Z M 229.441406 334.863281 " fill-opacity="1" fill-rule="nonzero"/><path fill="#bac1ce" d="M 284.417969 313.085938 L 284.414062 313.511719 L 290.964844 317.316406 L 291.671875 317.300781 L 298.726562 313.226562 L 298.757812 312.820312 L 292.207031 309.015625 L 291.472656 309.015625 Z M 284.417969 313.085938 " fill-opacity="1" fill-rule="nonzero"/><path fill="#bac1ce" d="M 285.085938 302.746094 L 285.113281 303.152344 L 291.667969 306.960938 L 292.371094 306.976562 L 299.457031 302.886719 L 299.429688 302.480469 L 292.875 298.671875 L 292.171875 298.65625 Z M 285.085938 302.746094 " fill-opacity="1" fill-rule="nonzero"/><path fill="#bac1ce" d="M 270.042969 291.554688 L 270.042969 291.980469 L 276.59375 295.785156 L 277.328125 295.785156 L 284.382812 291.714844 L 284.386719 291.289062 L 277.832031 287.484375 L 277.101562 287.484375 Z M 270.042969 291.554688 " fill-opacity="1" fill-rule="nonzero"/><path fill="#bac1ce" d="M 247.1875 294.832031 L 247.152344 295.238281 L 253.707031 299.042969 L 254.4375 299.042969 L 261.496094 294.972656 L 261.496094 294.546875 L 254.945312 290.742188 L 254.242188 290.757812 Z M 247.1875 294.832031 " fill-opacity="1" fill-rule="nonzero"/><path fill="#bac1ce" d="M 256.328125 289.554688 L 256.324219 289.945312 L 262.878906 293.75 L 263.582031 293.769531 L 270.636719 289.695312 L 270.636719 289.269531 L 264.085938 285.464844 L 263.382812 285.480469 Z M 256.328125 289.554688 " fill-opacity="1" fill-rule="nonzero"/><path fill="#bac1ce" d="M 260.8125 296.886719 L 260.808594 297.308594 L 267.363281 301.117188 L 268.09375 301.117188 L 275.152344 297.042969 L 275.152344 296.621094 L 268.601562 292.8125 L 267.867188 292.8125 Z M 260.8125 296.886719 " fill-opacity="1" fill-rule="nonzero"/><path fill="#bac1ce" d="M 271.769531 300.515625 L 271.765625 300.902344 L 278.347656 304.726562 L 279.019531 304.726562 L 286.109375 300.636719 L 286.109375 300.246094 L 279.527344 296.421875 L 278.855469 296.421875 Z M 271.769531 300.515625 " fill-opacity="1" fill-rule="nonzero"/><path fill="#bac1ce" d="M 244.007812 316.539062 L 244.003906 316.929688 L 250.585938 320.753906 L 251.257812 320.753906 L 258.316406 316.679688 L 258.347656 316.273438 L 251.765625 312.449219 L 251.0625 312.464844 Z M 244.007812 316.539062 " fill-opacity="1" fill-rule="nonzero"/><path fill="#bac1ce" d="M 214.261719 304.976562 L 214.257812 305.402344 L 218.890625 308.09375 L 219.621094 308.09375 L 225.421875 304.746094 L 225.390625 304.339844 L 220.761719 301.648438 L 220.058594 301.628906 Z M 214.261719 304.976562 " fill-opacity="1" fill-rule="nonzero"/><path fill="#bac1ce" d="M 206.375 309.527344 L 206.375 309.949219 L 211.003906 312.644531 L 211.738281 312.644531 L 217.539062 309.296875 L 217.539062 308.871094 L 212.90625 306.179688 L 212.171875 306.179688 Z M 206.375 309.527344 " fill-opacity="1" fill-rule="nonzero"/><path fill="#bac1ce" d="M 228.871094 305.402344 L 228.839844 305.808594 L 235.390625 309.617188 L 236.125 309.617188 L 243.179688 305.542969 L 243.152344 305.136719 L 236.601562 301.328125 L 235.929688 301.328125 Z M 228.871094 305.402344 " fill-opacity="1" fill-rule="nonzero"/><path fill="#bac1ce" d="M 219.699219 310.695312 L 219.667969 311.101562 L 226.21875 314.910156 L 226.953125 314.910156 L 234.007812 310.835938 L 234.011719 310.414062 L 227.457031 306.605469 L 226.757812 306.625 Z M 219.699219 310.695312 " fill-opacity="1" fill-rule="nonzero"/><path fill="#bac1ce" d="M 210.558594 315.972656 L 210.527344 316.378906 L 217.078125 320.1875 L 217.8125 320.1875 L 224.867188 316.113281 L 224.839844 315.707031 L 218.285156 311.898438 L 217.613281 311.898438 Z M 210.558594 315.972656 " fill-opacity="1" fill-rule="nonzero"/><path fill="#bac1ce" d="M 223.910156 318.183594 L 223.9375 318.59375 L 230.488281 322.398438 L 231.191406 322.417969 L 238.246094 318.34375 L 238.25 317.921875 L 231.699219 314.113281 L 230.964844 314.113281 Z M 223.910156 318.183594 " fill-opacity="1" fill-rule="nonzero"/><path fill="#bac1ce" d="M 214.675781 323.515625 L 214.703125 323.921875 L 221.253906 327.730469 L 221.957031 327.746094 L 229.042969 323.65625 L 229.015625 323.25 L 222.464844 319.441406 L 221.761719 319.425781 Z M 214.675781 323.515625 " fill-opacity="1" fill-rule="nonzero"/><path fill="#bac1ce" d="M 233.140625 312.855469 L 233.140625 313.28125 L 239.691406 317.085938 L 240.425781 317.085938 L 247.480469 313.015625 L 247.484375 312.589844 L 240.929688 308.785156 L 240.199219 308.785156 Z M 233.140625 312.855469 " fill-opacity="1" fill-rule="nonzero"/><path fill="#bac1ce" d="M 293.863281 307.632812 L 293.863281 308.058594 L 300.414062 311.863281 L 301.117188 311.847656 L 308.175781 307.773438 L 308.175781 307.382812 L 301.621094 303.578125 L 300.921875 303.558594 Z M 293.863281 307.632812 " fill-opacity="1" fill-rule="nonzero"/><path fill="#bac1ce" d="M 285.152344 264.058594 L 285.148438 264.480469 L 289.78125 267.171875 L 290.515625 267.171875 L 296.3125 263.828125 L 296.285156 263.417969 L 291.652344 260.726562 L 290.949219 260.710938 Z M 285.152344 264.058594 " fill-opacity="1" fill-rule="nonzero"/><path fill="#bac1ce" d="M 277.269531 268.605469 L 277.265625 269.03125 L 281.898438 271.722656 L 282.632812 271.722656 L 288.429688 268.375 L 288.433594 267.953125 L 283.800781 265.261719 L 283.066406 265.261719 Z M 277.269531 268.605469 " fill-opacity="1" fill-rule="nonzero"/><path fill="#bac1ce" d="M 269.382812 273.15625 L 269.414062 273.566406 L 274.042969 276.257812 L 274.746094 276.273438 L 280.546875 272.925781 L 280.546875 272.503906 L 275.914062 269.8125 L 275.183594 269.8125 Z M 269.382812 273.15625 " fill-opacity="1" fill-rule="nonzero"/><path fill="#bac1ce" d="M 283.8125 273.691406 L 283.78125 274.097656 L 290.332031 277.902344 L 291.066406 277.902344 L 305.851562 269.371094 L 305.824219 268.960938 L 299.269531 265.15625 L 298.597656 265.15625 Z M 283.8125 273.691406 " fill-opacity="1" fill-rule="nonzero"/><path fill="#bac1ce" d="M 297.898438 275.476562 L 297.894531 275.902344 L 304.449219 279.710938 L 305.183594 279.710938 L 314.476562 274.34375 L 314.449219 273.9375 L 307.894531 270.128906 L 307.195312 270.113281 Z M 297.898438 275.476562 " fill-opacity="1" fill-rule="nonzero"/><path fill="#bac1ce" d="M 274.640625 278.984375 L 274.640625 279.371094 L 281.191406 283.179688 L 281.894531 283.195312 L 288.980469 279.105469 L 288.953125 278.699219 L 282.398438 274.890625 L 281.726562 274.890625 Z M 274.640625 278.984375 " fill-opacity="1" fill-rule="nonzero"/><path fill="#bac1ce" d="M 288.480469 280.914062 L 288.507812 281.320312 L 295.0625 285.128906 L 295.765625 285.144531 L 302.820312 281.074219 L 302.824219 280.648438 L 296.269531 276.839844 L 295.535156 276.839844 Z M 288.480469 280.914062 " fill-opacity="1" fill-rule="nonzero"/><path fill="#bac1ce" d="M 265.5 284.261719 L 265.464844 284.667969 L 272.019531 288.472656 L 272.753906 288.472656 L 279.808594 284.402344 L 279.808594 283.976562 L 273.257812 280.171875 L 272.554688 280.1875 Z M 265.5 284.261719 " fill-opacity="1" fill-rule="nonzero"/><path fill="#bac1ce" d="M 299.773438 284.347656 L 299.773438 284.738281 L 306.355469 288.5625 L 307.027344 288.5625 L 323.039062 279.320312 L 323.042969 278.929688 L 316.460938 275.105469 L 315.789062 275.105469 Z M 299.773438 284.347656 " fill-opacity="1" fill-rule="nonzero"/><path fill="#bac1ce" d="M 279.246094 286.242188 L 279.277344 286.648438 L 285.828125 290.457031 L 286.53125 290.476562 L 293.617188 286.382812 L 293.589844 285.976562 L 287.035156 282.171875 L 286.332031 282.152344 Z M 279.246094 286.242188 " fill-opacity="1" fill-rule="nonzero"/><path fill="#bac1ce" d="M 312.019531 287.199219 L 312.015625 287.625 L 318.570312 291.433594 L 319.304688 291.433594 L 324.550781 288.402344 L 324.550781 287.980469 L 318 284.171875 L 317.265625 284.171875 Z M 312.019531 287.199219 " fill-opacity="1" fill-rule="nonzero"/><path fill="#bac1ce" d="M 290.296875 289.820312 L 290.261719 290.226562 L 296.847656 294.050781 L 297.550781 294.035156 L 304.605469 289.960938 L 304.636719 289.554688 L 298.054688 285.730469 L 297.351562 285.746094 Z M 290.296875 289.820312 " fill-opacity="1" fill-rule="nonzero"/><path fill="#bac1ce" d="M 320.613281 292.191406 L 320.613281 292.617188 L 327.164062 296.425781 L 327.867188 296.40625 L 333.113281 293.378906 L 333.144531 292.972656 L 326.59375 289.164062 L 325.859375 289.164062 Z M 320.613281 292.191406 " fill-opacity="1" fill-rule="nonzero"/><path fill="#bac1ce" d="M 302.234375 292.847656 L 302.261719 293.253906 L 308.816406 297.0625 L 309.519531 297.078125 L 317.433594 292.511719 L 317.433594 292.085938 L 310.882812 288.28125 L 310.148438 288.28125 Z M 302.234375 292.847656 " fill-opacity="1" fill-rule="nonzero"/><path fill="#bac1ce" d="M 281.03125 295.167969 L 281.03125 295.558594 L 287.613281 299.382812 L 288.285156 299.382812 L 295.339844 295.308594 L 295.375 294.902344 L 288.789062 291.078125 L 288.085938 291.09375 Z M 281.03125 295.167969 " fill-opacity="1" fill-rule="nonzero"/><path fill="#bac1ce" d="M 313.5 296.300781 L 313.496094 296.726562 L 320.046875 300.53125 L 320.75 300.515625 L 325.996094 297.488281 L 326.03125 297.082031 L 319.476562 293.273438 L 318.742188 293.273438 Z M 313.5 296.300781 " fill-opacity="1" fill-rule="nonzero"/><path fill="#bac1ce" d="M 294.414062 297.363281 L 294.441406 297.769531 L 300.992188 301.578125 L 301.695312 301.59375 L 307.0625 298.496094 L 307.066406 298.070312 L 300.515625 294.261719 L 299.78125 294.261719 Z M 294.414062 297.363281 " fill-opacity="1" fill-rule="nonzero"/><path fill="#bac1ce" d="M 303.375 302.144531 L 303.371094 302.566406 L 309.925781 306.375 L 310.628906 306.359375 L 318.542969 301.789062 L 318.542969 301.398438 L 311.992188 297.59375 L 311.289062 297.574219 Z M 303.375 302.144531 " fill-opacity="1" fill-rule="nonzero"/><path fill="#bac1ce" d="M 261.5 277.707031 L 261.527344 278.117188 L 266.160156 280.808594 L 266.863281 280.824219 L 272.660156 277.476562 L 272.664062 277.054688 L 268.03125 274.359375 L 267.296875 274.359375 Z M 261.5 277.707031 " fill-opacity="1" fill-rule="nonzero"/><path fill="#bac1ce" d="M 253.648438 282.242188 L 253.644531 282.667969 L 258.277344 285.359375 L 259.011719 285.359375 L 264.808594 282.011719 L 264.78125 281.605469 L 260.148438 278.914062 L 259.445312 278.894531 Z M 253.648438 282.242188 " fill-opacity="1" fill-rule="nonzero"/><path fill="#bac1ce" d="M 245.761719 286.792969 L 245.761719 287.214844 L 250.394531 289.90625 L 251.125 289.90625 L 256.925781 286.5625 L 256.925781 286.136719 L 252.292969 283.445312 L 251.5625 283.445312 Z M 245.761719 286.792969 " fill-opacity="1" fill-rule="nonzero"/><path fill="#bac1ce" d="M 237.878906 291.34375 L 237.878906 291.765625 L 242.507812 294.460938 L 243.242188 294.460938 L 249.039062 291.113281 L 249.042969 290.6875 L 244.410156 287.996094 L 243.675781 287.996094 Z M 237.878906 291.34375 " fill-opacity="1" fill-rule="nonzero"/><path fill="#bac1ce" d="M 229.996094 295.894531 L 230.023438 296.300781 L 234.65625 298.992188 L 235.359375 299.007812 L 241.15625 295.664062 L 241.160156 295.238281 L 236.527344 292.546875 L 235.792969 292.546875 Z M 229.996094 295.894531 " fill-opacity="1" fill-rule="nonzero"/><path fill="#bac1ce" d="M 238.015625 300.125 L 238.011719 300.515625 L 244.5625 304.320312 L 245.265625 304.339844 L 252.324219 300.265625 L 252.324219 299.84375 L 245.773438 296.035156 L 245.070312 296.050781 Z M 238.015625 300.125 " fill-opacity="1" fill-rule="nonzero"/><path fill="#bac1ce" d="M 251.578125 302.214844 L 251.605469 302.621094 L 258.160156 306.429688 L 258.863281 306.445312 L 265.917969 302.375 L 265.921875 301.949219 L 259.367188 298.140625 L 258.632812 298.140625 Z M 251.578125 302.214844 " fill-opacity="1" fill-rule="nonzero"/><path fill="#bac1ce" d="M 242.375 307.527344 L 242.371094 307.949219 L 248.925781 311.757812 L 249.660156 311.757812 L 256.714844 307.683594 L 256.6875 307.277344 L 250.132812 303.472656 L 249.429688 303.453125 Z M 242.375 307.527344 " fill-opacity="1" fill-rule="nonzero"/><path fill="#bac1ce" d="M 262.535156 305.84375 L 262.5 306.25 L 269.085938 310.074219 L 269.789062 310.058594 L 276.84375 305.984375 L 276.84375 305.597656 L 270.261719 301.769531 L 269.589844 301.769531 Z M 262.535156 305.84375 " fill-opacity="1" fill-rule="nonzero"/><path fill="#bac1ce" d="M 275.824219 308.09375 L 275.820312 308.515625 L 282.371094 312.324219 L 283.105469 312.324219 L 290.160156 308.25 L 290.164062 307.828125 L 283.613281 304.019531 L 282.878906 304.019531 Z M 275.824219 308.09375 " fill-opacity="1" fill-rule="nonzero"/><path fill="#bac1ce" d="M 253.269531 311.191406 L 253.238281 311.597656 L 259.820312 315.421875 L 260.523438 315.40625 L 267.578125 311.332031 L 267.613281 310.925781 L 261.027344 307.101562 L 260.324219 307.117188 Z M 253.269531 311.191406 " fill-opacity="1" fill-rule="nonzero"/><path fill="#bac1ce" d="M 266.558594 313.441406 L 266.554688 313.863281 L 273.109375 317.671875 L 273.84375 317.671875 L 280.898438 313.601562 L 280.898438 313.175781 L 274.347656 309.367188 L 273.613281 309.367188 Z M 266.558594 313.441406 " fill-opacity="1" fill-rule="nonzero"/><path fill="#bac1ce" d="M 257.261719 318.804688 L 257.292969 319.210938 L 263.84375 323.019531 L 264.546875 323.039062 L 271.632812 318.945312 L 271.605469 318.539062 L 265.050781 314.734375 L 264.351562 314.714844 Z M 257.261719 318.804688 " fill-opacity="1" fill-rule="nonzero"/><path fill="#bac1ce" d="M 248 324.152344 L 247.996094 324.578125 L 254.550781 328.382812 L 255.28125 328.382812 L 262.339844 324.3125 L 262.339844 323.886719 L 255.789062 320.082031 L 255.054688 320.082031 Z M 248 324.152344 " fill-opacity="1" fill-rule="nonzero"/><path fill="#bac1ce" d="M 234.773438 321.867188 L 234.738281 322.273438 L 241.324219 326.101562 L 242.027344 326.082031 L 249.082031 322.011719 L 249.085938 321.621094 L 242.5 317.796875 L 241.828125 317.796875 Z M 234.773438 321.867188 " fill-opacity="1" fill-rule="nonzero"/><path fill="#bac1ce" d="M 225.507812 327.214844 L 225.476562 327.621094 L 232.058594 331.449219 L 232.761719 331.429688 L 239.816406 327.355469 L 239.851562 326.949219 L 233.265625 323.125 L 232.566406 323.144531 Z M 225.507812 327.214844 " fill-opacity="1" fill-rule="nonzero"/><path fill="#bac1ce" d="M 182.753906 323.160156 L 182.753906 323.585938 L 187.386719 326.277344 L 188.117188 326.277344 L 193.917969 322.929688 L 193.886719 322.523438 L 189.257812 319.832031 L 188.554688 319.8125 Z M 182.753906 323.160156 " fill-opacity="1" fill-rule="nonzero"/><path fill="#bac1ce" d="M 198.492188 314.078125 L 198.519531 314.484375 L 203.152344 317.175781 L 203.855469 317.195312 L 209.652344 313.847656 L 209.65625 313.421875 L 205.023438 310.730469 L 204.289062 310.730469 Z M 198.492188 314.078125 " fill-opacity="1" fill-rule="nonzero"/><path fill="#bac1ce" d="M 190.609375 318.628906 L 190.636719 319.035156 L 195.269531 321.726562 L 195.972656 321.742188 L 201.769531 318.398438 L 201.773438 317.972656 L 197.140625 315.28125 L 196.40625 315.28125 Z M 190.609375 318.628906 " fill-opacity="1" fill-rule="nonzero"/><path fill="#bac1ce" d="M 201.386719 321.265625 L 201.355469 321.671875 L 207.90625 325.480469 L 208.640625 325.480469 L 215.695312 321.40625 L 215.699219 320.984375 L 209.144531 317.175781 L 208.441406 317.195312 Z M 201.386719 321.265625 " fill-opacity="1" fill-rule="nonzero"/><path fill="#bac1ce" d="M 174.871094 327.710938 L 174.867188 328.136719 L 179.5 330.828125 L 180.234375 330.828125 L 186.03125 327.480469 L 186.035156 327.054688 L 181.402344 324.363281 L 180.667969 324.363281 Z M 174.871094 327.710938 " fill-opacity="1" fill-rule="nonzero"/><path fill="#bac1ce" d="M 192.214844 326.5625 L 192.214844 326.949219 L 198.765625 330.757812 L 199.46875 330.773438 L 206.554688 326.683594 L 206.527344 326.277344 L 199.972656 322.46875 L 199.300781 322.46875 Z M 192.214844 326.5625 " fill-opacity="1" fill-rule="nonzero"/><path fill="#bac1ce" d="M 205.472656 328.828125 L 205.46875 329.25 L 212.023438 333.058594 L 212.757812 333.058594 L 219.8125 328.988281 L 219.8125 328.5625 L 213.261719 324.753906 L 212.527344 324.753906 Z M 205.472656 328.828125 " fill-opacity="1" fill-rule="nonzero"/><path fill="#bac1ce" d="M 166.988281 332.261719 L 167.015625 332.667969 L 171.648438 335.359375 L 172.351562 335.378906 L 178.148438 332.03125 L 178.152344 331.605469 L 173.519531 328.914062 L 172.785156 328.914062 Z M 166.988281 332.261719 " fill-opacity="1" fill-rule="nonzero"/><path fill="#bac1ce" d="M 183.074219 331.835938 L 183.039062 332.242188 L 189.59375 336.050781 L 190.328125 336.050781 L 197.382812 331.980469 L 197.386719 331.554688 L 190.832031 327.746094 L 190.128906 327.765625 Z M 183.074219 331.835938 " fill-opacity="1" fill-rule="nonzero"/><path fill="#bac1ce" d="M 216.246094 332.5625 L 216.210938 332.96875 L 222.792969 336.792969 L 223.496094 336.777344 L 230.554688 332.707031 L 230.585938 332.296875 L 224.003906 328.472656 L 223.300781 328.492188 Z M 216.246094 332.5625 " fill-opacity="1" fill-rule="nonzero"/><path fill="#bac1ce" d="M 196.238281 334.15625 L 196.238281 334.582031 L 202.789062 338.386719 L 203.523438 338.386719 L 210.578125 334.316406 L 210.582031 333.890625 L 204.027344 330.085938 L 203.292969 330.085938 Z M 196.238281 334.15625 " fill-opacity="1" fill-rule="nonzero"/><path fill="#bac1ce" d="M 173.902344 337.132812 L 173.898438 337.519531 L 180.453125 341.328125 L 181.152344 341.347656 L 188.242188 337.253906 L 188.210938 336.847656 L 181.660156 333.042969 L 180.988281 333.042969 Z M 173.902344 337.132812 " fill-opacity="1" fill-rule="nonzero"/><path fill="#bac1ce" d="M 206.980469 337.910156 L 206.976562 338.300781 L 213.5625 342.125 L 214.234375 342.125 L 221.289062 338.050781 L 221.320312 337.644531 L 214.738281 333.820312 L 214.035156 333.835938 Z M 206.980469 337.910156 " fill-opacity="1" fill-rule="nonzero"/><path fill="#bac1ce" d="M 187.003906 339.484375 L 187.035156 339.894531 L 193.585938 343.699219 L 194.289062 343.71875 L 201.375 339.628906 L 201.347656 339.21875 L 194.792969 335.414062 L 194.09375 335.394531 Z M 187.003906 339.484375 " fill-opacity="1" fill-rule="nonzero"/><path fill="#bac1ce" d="M 220.175781 340.210938 L 220.175781 340.636719 L 226.726562 344.445312 L 227.460938 344.445312 L 234.515625 340.371094 L 234.519531 339.945312 L 227.964844 336.140625 L 227.230469 336.140625 Z M 220.175781 340.210938 " fill-opacity="1" fill-rule="nonzero"/><path fill="#bac1ce" d="M 197.746094 343.238281 L 197.714844 343.648438 L 204.296875 347.472656 L 205 347.453125 L 212.054688 343.382812 L 212.058594 342.992188 L 205.476562 339.167969 L 204.804688 339.167969 Z M 197.746094 343.238281 " fill-opacity="1" fill-rule="nonzero"/><path fill="#bac1ce" d="M 210.914062 345.558594 L 210.910156 345.984375 L 217.460938 349.792969 L 218.195312 349.792969 L 225.25 345.71875 L 225.222656 345.3125 L 218.671875 341.503906 L 217.96875 341.488281 Z M 210.914062 345.558594 " fill-opacity="1" fill-rule="nonzero"/><path fill="#bac1ce" d="M 183.972656 351.1875 L 183.941406 351.597656 L 190.523438 355.421875 L 191.226562 355.402344 L 202.882812 348.675781 L 202.917969 348.269531 L 196.332031 344.445312 L 195.628906 344.460938 Z M 183.972656 351.1875 " fill-opacity="1" fill-rule="nonzero"/><path fill="#bac1ce" d="M 192.539062 356.164062 L 192.535156 356.589844 L 199.085938 360.398438 L 199.820312 360.398438 L 215.894531 351.117188 L 215.898438 350.695312 L 209.34375 346.886719 L 208.609375 346.886719 Z M 192.539062 356.164062 " fill-opacity="1" fill-rule="nonzero"/><path fill="#bac1ce" d="M 159.105469 336.8125 L 159.132812 337.21875 L 163.765625 339.910156 L 164.46875 339.929688 L 170.265625 336.582031 L 170.269531 336.15625 L 165.636719 333.464844 L 164.902344 333.464844 Z M 159.105469 336.8125 " fill-opacity="1" fill-rule="nonzero"/><path fill="#bac1ce" d="M 166.753906 341.257812 L 166.75 341.644531 L 173.304688 345.453125 L 174.007812 345.46875 L 178.855469 342.671875 L 178.855469 342.25 L 172.304688 338.441406 L 171.601562 338.460938 Z M 166.753906 341.257812 " fill-opacity="1" fill-rule="nonzero"/><path fill="#bac1ce" d="M 228.769531 345.203125 L 228.769531 345.628906 L 235.320312 349.4375 L 236.023438 349.417969 L 243.078125 345.347656 L 243.113281 344.941406 L 236.558594 341.132812 L 235.828125 341.132812 Z M 228.769531 345.203125 " fill-opacity="1" fill-rule="nonzero"/><path fill="#bac1ce" d="M 219.507812 350.554688 L 219.503906 350.976562 L 226.054688 354.785156 L 226.757812 354.765625 L 233.816406 350.695312 L 233.816406 350.304688 L 227.265625 346.5 L 226.5625 346.480469 Z M 219.507812 350.554688 " fill-opacity="1" fill-rule="nonzero"/><path fill="#bac1ce" d="M 238.734375 329.5 L 238.734375 329.925781 L 245.285156 333.730469 L 246.019531 333.730469 L 253.074219 329.660156 L 253.046875 329.25 L 246.492188 325.445312 L 245.792969 325.425781 Z M 238.734375 329.5 " fill-opacity="1" fill-rule="nonzero"/><path fill="#bac1ce" d="M 237.667969 340.070312 L 237.664062 340.496094 L 244.21875 344.300781 L 244.917969 344.285156 L 289.460938 318.574219 L 289.492188 318.167969 L 282.941406 314.359375 L 282.207031 314.359375 Z M 237.667969 340.070312 " fill-opacity="1" fill-rule="nonzero"/><path fill="#bac1ce" d="M 327.667969 288.121094 L 327.699219 288.527344 L 334.25 292.335938 L 334.921875 292.335938 L 340.199219 289.289062 L 340.203125 288.898438 L 333.648438 285.09375 L 332.945312 285.074219 Z M 327.667969 288.121094 " fill-opacity="1" fill-rule="nonzero"/><path fill="#bac1ce" d="M 319.074219 283.125 L 319.105469 283.535156 L 325.65625 287.339844 L 326.359375 287.359375 L 331.636719 284.3125 L 331.609375 283.90625 L 325.054688 280.097656 L 324.351562 280.082031 Z M 319.074219 283.125 " fill-opacity="1" fill-rule="nonzero"/><path fill="#bac1ce" d="M 222.144531 300.425781 L 222.140625 300.851562 L 226.773438 303.542969 L 227.507812 303.542969 L 233.304688 300.195312 L 233.277344 299.789062 L 228.644531 297.097656 L 227.941406 297.078125 Z M 222.144531 300.425781 " fill-opacity="1" fill-rule="nonzero"/></svg>